<svg width="180" height="180" fill="none" xmlns="http://www.w3.org/2000/svg"><path fill-rule="evenodd" clip-rule="evenodd" d="M132.8 170.7c49.6-21.7 63-48.5 26.4-113.3C122.5-7.3 61.4-3.9 45.8 4.5 3.2 22.5-7.8 65.3 5 122.8c33.6 53 78 69.6 127.7 48z" fill="#F4E5E8"/><path fill-rule="evenodd" clip-rule="evenodd" d="M74.9 35.4c2.7-.7 4.5-2 5.1-4.2.7-2-2.7-4-10.3-6.2L48 24c-2.8 1-4.9 2.1-6.2 3.1-1.3 1-2.3 2-3 3.1l-6.3 5.2c2-2 4.5-.7 7.2 4.1 1 2 1-4.1 8.3-4.1 7.2 0 13.4 0 16.5-2 2.1-1.5 5.6-2.8 10.4-4.2v6.2z" fill="#122E2B"/><path fill-rule="evenodd" clip-rule="evenodd" d="M41.8 8.5l-1 6.2V25l1 2.1-3 3.1-3.2 4.1h-3.1l-2-3V19.8l2-4.2 4.1-4 5.2-3.2z" fill="#F7E4D3"/><path d="M40.8 40.5c-2.8-4.8-5.2-6.8-7.3-6.2-2 .7-3 3.1-3 7.3a7.3 7.3 0 006.1 6.2c.7 3.4.4 10.7-1 21.7-.7 9.6-6.2 18.2-16.5 25.8C8.7 102.9 3.2 110.5 2.5 118m56.9-52.7c-.7 7 2 14.2 8.2 21.7 6.2 7.6 23.1 13.8 50.7 18.6" stroke="#122E2B" stroke-linecap="round"/><path d="M69.7 40.5a1 1 0 100-2 1 1 0 000 2zm-13.4 0a1 1 0 100-2 1 1 0 000 2z" fill="#122E2B"/><path d="M63.5 38.5c1.4 4.8 1.4 7.9 0 9.3M58.3 54c1.4 2 3.1 2.7 5.2 2" stroke="#122E2B" stroke-linecap="round"/><path d="M51.1 54c2.9 0 5.2-2.6 5.2-5.7S54 42.6 51 42.6c-2.8 0-5.2 2.6-5.2 5.7s2.4 5.7 5.2 5.7z" fill="#F1BB76"/><path fill-rule="evenodd" clip-rule="evenodd" d="M72.8 42.6l1.8.3c-.6 5-1.4 8.7-2.5 11-2.5-.3-4.5-2.7-4.5-5.6 0-3.1 2.4-5.7 5.2-5.7z" fill="#F1BB76"/><path d="M74.9 29.2c0 13-1.4 22.4-4.2 27.9-2.7 5.5-8.6 8.2-17.5 8.2" stroke="#122E2B" stroke-linecap="round"/><path fill-rule="evenodd" clip-rule="evenodd" d="M35.6 34.3C43.2 26.8 49.4 23 54.2 23 61.4 23 75 23 77 27c1.6 3.1-1.5 2.2-8.2 5.2-2.6 1.1-3.4 1.2-6.2 2-7.3 2.1-10.1 2.3-12.4-.5-1.4-1.9-2.8-4.5-5.2-7.7" fill="#F6EFF0"/><path d="M35.6 34.3C43.2 26.8 49.4 23 54.2 23 61.4 23 75 23 77 27c1.6 3.1-1.5 2.2-8.2 5.2-2.6 1.1-3.4 1.2-6.2 2-7.3 2.1-10.1 2.3-12.4-.5-1.4-1.9-2.8-4.5-5.2-7.7" stroke="#122E2B" stroke-linecap="round"/><path d="M30.4 31.2c-.7-6.8-.3-11.3 1-13.4 2.1-3 4.2-7.2 15.6-11.4 11.3-4 23.7 4.2 24.8 7.3.7 2 1 5.5 1 10.3m-31-14.5a37 37 0 000 17.6" stroke="#122E2B" stroke-linecap="round"/><path fill-rule="evenodd" clip-rule="evenodd" d="M52.1 17.8c-1-1 0-7.2 3.1-6.2 2.1.7 3.1 1.7 3.1 3.1 2.1-.7 3.5 0 4.2 2 1 3.2-9.3 2.1-10.4 1.1z" fill="#F1BB76"/><path d="M29.4 86c6.2 4.8 13 6.9 20.7 6.2 7.6-.7 13-2.8 16.5-6.2" stroke="#122E2B" stroke-linecap="round"/><path d="M39.7 107.7c-2 2-7.5 3.1-16.5 3.1-2 7.2 5.2 14.5 10.3 13.4 5.2-1 8.3-2 8.3-13.4" stroke="#122E2B" stroke-linecap="round" stroke-linejoin="round"/><path d="M4.6 125.3l116.8-10.4V97.4l46.5 27.9-40.3 35-2-17.5-83.8 9.3" stroke="#122E2B" stroke-linecap="round" stroke-linejoin="round"/><path d="M22.2 160.4c3.4 2.7 8.6 1.4 15.5-4.1 10.3-8.3 8.2-13.5 9.3-15.5 1-2.1-3.1 2-7.3 7.2-4 5.2 5.2-7.2 5.2-10.3 0-2.1-3.8 1.3-11.4 10.3 3.5-4.8 5.2-8 5.2-9.3 0-1.4-3 1.7-9.3 9.3.7-.7 1-2.4 1-5.2 0-2.7-3.4.4-10.3 9.3" stroke="#122E2B" stroke-linecap="round" stroke-linejoin="round"/><path fill-rule="evenodd" clip-rule="evenodd" d="M64.7 105.5c-1.5 1.7-3.4 2.5-4.2.6-.8-1.9-3.1-2-2.6-3.4.5-1.3 3.1-2.7 4.8-2 1.6.6 3.5 3 2 4.8zm-16.5 5.8c-2.3-.5-3.9-1.8-2.5-3.4 1.3-1.6.4-3.7 1.8-3.8 1.5-.2 3.8 1.6 4 3.3.1 1.7-1.1 4.5-3.3 4zm25.6-16c.6-2.2 2-3.7 3.5-2.4 1.6 1.4 3.7.6 3.8 2 0 1.5-1.7 3.8-3.4 3.9-1.8 0-4.5-1.2-3.9-3.5zm-5.2 20c1.7 1.6 2.4 3.6.5 4.3-2 .7-2.1 3-3.5 2.4-1.3-.6-2.5-3.2-1.8-4.8.7-1.6 3.1-3.4 4.8-1.8zm47-10.5c.2 2.3-.4 4.2-2.4 3.5-2-.6-3.6 1-4.2-.3-.7-1.3.1-4.2 1.7-5 1.5-.7 4.5-.5 4.8 1.8zm-20.7-6.4c2.2.5 3.8 1.8 2.5 3.4-1.4 1.6-.4 3.7-1.9 3.8-1.4.2-3.8-1.6-4-3.3-.1-1.7 1.1-4.5 3.4-4zm5.9 16.3c2-1.1 4-1.3 4.1.8.2 2 2.3 3 1.4 4-1 1.1-3.9 1.5-5.2.4-1.3-1.2-2.3-4-.3-5.2zm-19.7-3c2-1.2 4-1.4 4.2.7.2 2 2.3 3 1.3 4-1 1.1-3.8 1.5-5.1.4-1.3-1.2-2.4-4-.4-5.2zm-51.7 8.2c2-1.2 4.1-1.3 4.2.7.2 2.1 2.3 3 1.4 4-1 1.2-3.9 1.6-5.2.5-1.3-1.2-2.3-4-.4-5.2zm-4.6-13.2c-1.7-1.5-2.4-3.5-.5-4.2 2-.7 2.2-3 3.5-2.4 1.3.6 2.5 3.2 1.8 4.8-.7 1.6-3 3.4-4.8 1.8zm-13.6 1.8c-2 1-4.1 1.2-4.2-1 0-2-2.2-3-1.2-4 1-1 4-1.4 5.2-.2 1.3 1.2 2.2 4 .2 5.2zm2 15.5c-2 1-4 1.1-4.1-1 0-2-2.2-3-1.2-4 1-1 3.9-1.4 5.2-.2 1.2 1.2 2.2 4 .1 5.2zm37.8 1.4c-1.7 1.6-3.7 2.2-4.2.2-.6-2-2.9-2.4-2.2-3.7.7-1.3 3.5-2.3 5-1.4 1.5.8 3.1 3.4 1.4 5zM29.3 89.3c-1.7 1.5-3.7 2.1-4.2.1-.6-2-2.9-2.4-2.2-3.7.7-1.3 3.5-2.2 5-1.4 1.5.8 3.1 3.4 1.4 5zm16.8 4.5c-2.2-.5-3.8-1.8-2.5-3.4 1.3-1.6.3-3.7 1.8-3.9 1.4-.1 3.8 1.5 4 3.3.2 1.7-1 4.5-3.3 4z" fill="#F2B262"/></svg>
