<svg width="180" height="180" fill="none" xmlns="http://www.w3.org/2000/svg"><path opacity=".5" fill-rule="evenodd" clip-rule="evenodd" d="M51.26 175.82c39.07 15.98 104.04-17.03 122.1-45.91 18.06-28.88-1.95-109.65-45-124.01C85.3-8.47 27.85 13.76 7.3 54.99c-20.55 41.23 4.88 104.85 43.95 120.83z" fill="#E6C997"/><path d="M86.35 26.46c-.7 14-.7 23.17 0 27.53 1.05 6.45 3.85 10.24 6.27 11.64 4.87 2.82 9.4 3.53 13.58 2.12m-10.45 0c1.4 8.47.7 14.47-2.09 18-4.17 5.29-16.71 11.64-18.8 14.81m48.05-35.99c-.7 9.88 1.05 16.94 5.23 21.17 6.27 6.36 13.58 9.53 16.71 11.65 3.14 2.12 12.54 10.58 15.67 23.29 2.1 8.46 3.48 13.05 4.18 13.76" stroke="#222221" stroke-linecap="round"/><path d="M138.59 94.21a69.41 69.41 0 00-4.18 16.94c-.53 5.17-.53 13.29 0 24.35" stroke="#222221" stroke-linecap="round"/><path d="M132.32 89.98c-2.79 7.76-4.18 13.05-4.18 15.88 0 2.82-.35 6.35-1.05 10.58-6.26 3.53-14.27 5.3-24.02 5.3" stroke="#222221" stroke-linecap="round" stroke-linejoin="round"/><path d="M130.23 88.92c-6.27 4.94-12.89 7.41-19.85 7.41-6.97 0-13.58-2.47-19.85-7.41" stroke="#222221" stroke-linecap="round"/><path d="M89.48 89.98l-1.04 9.52" stroke="#000" stroke-linecap="round"/><path d="M40.38 136.56c0-23.3 2.1-35.29 6.27-36 4.18-.7 19.5-.7 45.97 0 3.48-.7 5.57.36 6.27 3.18 1.04 4.23 3.13 13.76 5.22 33.87" stroke="#222221" stroke-linecap="round"/><path d="M59.19 100.56c2.79-8.47 7.31-12.7 13.58-12.7 6.27 0 10.45 4.23 12.54 12.7" stroke="#000"/><path d="M72.25 125.44c1.73 0 3.13-2.13 3.13-4.76s-1.4-4.77-3.13-4.77-3.14 2.14-3.14 4.77c0 2.63 1.4 4.76 3.14 4.76zm-19.33-24.88c-1.4 9.88 3.83 16.59 15.67 20.12m22.76-20.12c1.4 9.88-3.83 16.59-15.67 20.12" stroke="#222221"/><path d="M61.28 132.32h19.85" stroke="#000" stroke-linecap="round"/><path d="M55.01 99.5c-.34-10.87-.69-17.58-1.04-20.1a3.75 3.75 0 00-3.14-3.18c-3.94-.23-18.91-.23-44.92 0-2.78.7-4.18 2.11-4.18 4.23v55.05" stroke="#000"/><path d="M16.36 76.22c2.09-7.77 6.61-11.65 13.58-11.65 6.96 0 11.14 3.88 12.53 11.65" stroke="#000"/><path d="M16.36 106.92c4.18-6.36 6.61-9.18 7.31-8.47.7.7.35 3.52-1.05 8.46 2.8-5.64 4.53-8.11 5.23-7.4 1.04 1.05-2.1 8.46 1.04 8.46 2.1 0 5.58-.7 10.45-2.11" stroke="#F3B362" stroke-width="2" stroke-linecap="round"/><path d="M102.54 40.23c.87 0 1.57-.71 1.57-1.6a1.57 1.57 0 10-3.13 0c0 .88.7 1.6 1.56 1.6zm-15.67 0c.87 0 1.57-.71 1.57-1.6a1.57 1.57 0 10-3.13 0c0 .88.7 1.6 1.56 1.6z" fill="#000"/><path d="M93.66 37.05c-1.39 6.35-1.39 10.23 0 11.64m-1.04 8.47c2.09 0 3.83-.7 5.22-2.11" stroke="#000" stroke-linecap="round"/><path d="M107.77 55.05c3.17 0 5.74-2.61 5.74-5.83a5.78 5.78 0 00-5.74-5.82 5.78 5.78 0 00-5.75 5.82 5.78 5.78 0 005.75 5.83zm-22.99 0c2.6 0 4.7-2.61 4.7-5.83 0-3.21-2.1-5.82-4.7-5.82s-4.7 2.6-4.7 5.82 2.1 5.83 4.7 5.83z" fill="#F2B262"/><path fill-rule="evenodd" clip-rule="evenodd" d="M95.75 67.75C86 64.93 80.43 59.99 79.04 52.93c-2.1-10.59 3.13-7.41 3.13-14.82s-3.13-14.82 2.1-23.29c5.21-8.47 18.8-11.64 28.2-9.53a29.22 29.22 0 016.33 2.24c7.01 3.4 13.18 9.7 15.6 17.88 2.1 7.05 2.44 16.58 1.05 28.58-.7-5.65-1.4-8.47-2.09-8.47-1.04 0 1.05 26.46-21.94 20.11-5.22-1.06 7.32 1.06 8.36-10.58.7-7.77.35-16.23-1.04-25.41-11.84-.7-19.16-3.53-21.94-8.47-4.18-7.4 5.22 5.3-10.45 7.41-2.09 21.17 1.05 34.23 9.4 39.17z" fill="#000"/><path fill-rule="evenodd" clip-rule="evenodd" d="M110.38 1.06c2.09 0 3.83 1.41 5.22 4.23.37.75.88.34 1.05 0 1.39-2.82 3.83-4.58 7.3-5.29-2.25 2.57-3.64 4.33-4.17 5.3-.6 1.07-.45 2.87-1.04 3.17-1.4.7-3.49.35-6.27-1.06.25-1.34.25-2.4 0-3.18-.26-.78-.96-1.83-2.1-3.17z" fill="#000"/><path fill-rule="evenodd" clip-rule="evenodd" d="M142.76 110.1c2.1-1.07 4.18-1.07 4.18 1.05s2.1 3.17 1.05 4.23c-1.05 1.06-3.99 1.26-5.23 0-1.24-1.25-2.09-4.23 0-5.29zm20.82 9.96c2.07 1.1 3.3 2.8 1.61 4.05-1.69 1.25-1.3 3.58-2.77 3.35-1.45-.24-3.34-2.53-3.07-4.29.28-1.75 2.16-4.2 4.23-3.1zm-14.46 14.59c-2-.85-1.18-3.74.82-4.36 2-.62 1.34-2.95 2.65-2.25 1.3.7 2.35 3.5 1.53 5.06-.83 1.57-3 2.4-5 1.55zm-17.17-6.54c-.77 2.06-2.57 2.38-3.25.38-.68-2-4.04-2.32-3.4-3.66.66-1.35 3.37-2.5 4.95-1.73 1.57.78 2.46 2.95 1.7 5.01zm0-21.17c-.77 2.05-3.61 2.38-4.3.38-.67-2-2.99-2.32-2.34-3.66.65-1.35 3.36-2.5 4.94-1.73 1.57.78 2.46 2.95 1.7 5zm8.23-10.15c-.36-2.17 1.95-2.83 3.53-1.44 1.57 1.39 3.73-.58 3.83.92.1 1.5-1.67 3.87-3.42 4-1.75.12-3.6-1.31-3.94-3.48z" fill="#F2B262"/></svg>
