<svg width="180" height="181" fill="none" xmlns="http://www.w3.org/2000/svg"><path fill-rule="evenodd" clip-rule="evenodd" d="M37.24 166.92c48.63 28.58 91.38 11.33 120.1-30.9 28.72-42.25 36.88-96.08-16.1-122.05-52.99-25.98-91.38-11.33-120.1 30.9-28.72 42.25-32.53 93.47 16.1 122.05z" fill="#E4F6EF"/><path fill-rule="evenodd" clip-rule="evenodd" d="M64.04 119.9c4.82 12.3 8.26 18.44 10.33 18.44 1.38-.68 2.06-1.37 2.06-2.05 6.2 14.35 9.3 23.92 9.3 28.7 0 7.17 46.5-35.87 49.6-39.97 3.1-4.1 12.4-18.45 10.33-27.68-1.03-2.05-6.2 4.1-16.53-8.2-8.27 1.03-18.6 11.28-36.16 3.08-13.1 6.83-22.73 16.06-28.93 27.67z" fill="#FFE9D2"/><path d="M100.2 67.62c0 14.35-3.79 23.57-11.37 27.67-11.36 6.15-22.73 20.5-25.83 24.6-2.06 2.73-4.13 1.37-6.2-4.1L41.3 87.1c-.68-14.35-1.72-21.86-3.1-22.55-1.37-.68-2.4 2.4-3.1 9.23-4.81-8.2-7.92-12.3-9.3-12.3-1.37 0 .35 4.78 5.17 14.35-4.13-6.84-7.92-10.6-11.36-11.28-3.45-.68-.7 3.76 8.26 13.33-3.44-4.1-6.2-6.15-8.26-6.15-3.1 0 13.43 16.4 13.43 19.47 0 3.08 17.57 54.33 23.76 56.38 4.14 1.36 9.65-1.37 16.54-8.2 1.37-2.05 2.4-3.08 3.1-3.08 1.03 0 9.3 23.58 9.3 28.7m37.2-106.6c.68 15.72 2.75 25.97 6.19 30.75 3.44 4.78 7.23 7.52 11.37 8.2" stroke="#11312C" stroke-linecap="round"/><path d="M92.97 92.22a31.07 31.07 0 0017.56 3.07c6.2-.68 12.4-2.73 18.6-6.15" stroke="#11312C" stroke-linecap="round"/><path d="M88.83 40.97a1.03 1.03 0 001.04-1.03 1.03 1.03 0 00-1.04-1.02 1.03 1.03 0 00-1.03 1.02 1.03 1.03 0 001.03 1.03zm15.5-1.03a1.03 1.03 0 001.04-1.02 1.03 1.03 0 00-1.04-1.03 1.03 1.03 0 00-1.03 1.03 1.03 1.03 0 001.03 1.02z" fill="#11312C"/><path d="M95.03 38.92c-.68 5.46-.34 8.88 1.04 10.25m-1.04 7.17c2.07 0 3.8-.68 5.17-2.05" stroke="#11312C" stroke-linecap="round"/><path d="M109.5 55.32c2.85 0 5.16-2.53 5.16-5.64s-2.3-5.64-5.16-5.64c-2.86 0-5.17 2.53-5.17 5.64s2.31 5.64 5.17 5.64z" fill="#E9B165"/><path fill-rule="evenodd" clip-rule="evenodd" d="M86.77 45.07c2.85 0 5.16 2.52 5.16 5.63 0 3.12-2.3 5.64-5.16 5.64-.19 0-.38 0-.56-.03-.85-1.99-1.54-5.47-2.09-10.45a4.8 4.8 0 012.65-.8z" fill="#E9B165"/><path d="M84.7 28.67c-1.38 13.66-.69 23.23 2.07 28.7 2.75 5.46 8.95 8.88 18.6 10.25" stroke="#11312C" stroke-linecap="round"/><path fill-rule="evenodd" clip-rule="evenodd" d="M83.67 33.8c1.38-4.79 3.1-7.18 5.16-7.18 3.1 0 8.27 1.02 11.37-1.03 3.1-2.05 5.17-2.05 9.3 2.05 4.13 4.1 0 9.23 0 12.3 0 3.08 2.07 5.13 6.2 5.13 4.13 0-2.07 8.2 2.06 13.32 2.76 3.42 4.83 4.44 6.2 3.08a20.39 20.39 0 006.2-7.18c2.07-4.1 3.1-1.02 5.17-18.45.69-6.83-1.03-10.93-5.17-12.3 2.07-10.25-2.4-15.71-13.43-16.4-16.53-1.02-8.26-4.1-16.53-3.07-5.51.68-8.96 2.39-10.33 5.12-5.51 2.05-8.96 5.13-10.33 9.23-2.07 6.15 1.03 10.25 2.06 11.27.7.69 1.38 2.05 2.07 4.1z" fill="#11312C"/><path d="M85.73 162.94c4.83-5.47 8.96-7.52 12.4-6.15 5.17 2.05 1.04 5.13 7.24 4.1 4.13-.68 7.23-2.73 9.3-6.15m-37.2-13.33c1.38 2.74 3.44 3.76 6.2 3.08 4.13-1.03 6.2-7.17 11.36-5.13 5.17 2.05 2.07 4.1 8.27 4.1 6.2 0 6.2-6.14 10.33-5.12 4.14 1.02 6.2 7.17 10.33 5.12 2.76-1.36 5.52-3.75 8.27-7.17m-68.2-25.62c2.76-4.79 5.86-6.15 9.3-4.1 3.45 2.05 6.55 3.07 9.3 3.07 2.76-4.78 5.52-6.49 8.27-5.12 4.13 2.05 6.2 5.12 10.33 4.1 4.14-1.03 6.2-6.15 10.34-4.1 4.13 2.05 5.16 5.12 9.3 4.1 4.13-1.03 4.13-6.15 9.3-5.13 5.16 1.03 4.13 6.15 11.36 3.08 4.82-2.05 7.92-3.76 9.3-5.13" stroke="#74B8A0" stroke-linecap="round"/><path d="M86.6 153.04c2.26-3.6 5.1-5.06 8.5-4.35 5.12 1.07 2.89 4.14 8.09 3.62 3.47-.36 6.66-2.05 9.58-5.1m-42.53-32.44c2.75-2.05 4.82-2.05 6.2 0 2.06 3.07 3.1 5.12 7.23 1.02s5.16-4.1 8.26-2.05c3.1 2.05 6.2 6.15 11.37 3.08 5.17-3.08 4.13-5.13 9.3-3.08 5.16 2.05 7.23 5.13 10.33 3.08 3.1-2.05 5.17-7.18 9.3-5.13 4.13 2.05 7.23 5.13 10.33 4.1 2.07-.68 4.82-2.39 8.27-5.12m-86.8-9.23c2.76-3.42 5.52-4.44 8.27-3.07 4.14 2.05 8.27 4.1 11.37 3.07 3.1-1.02 7.23-6.15 9.3-4.1 2.06 2.05 7.23 4.1 10.33 3.08 3.1-1.03 5.17-5.13 7.23-5.13s8.27 7.18 10.33 5.13c2.07-2.05 5.17-7.18 8.27-5.13 3.1 2.05 11.37 6.15 13.43 4.1 1.38-1.37 4.13-3.42 8.27-6.15" stroke="#E9B165" stroke-linecap="round"/><path d="M64.04 119.9c2.06 8.2 5.5 14.34 10.33 18.44" stroke="#11312C" stroke-linecap="round"/><path d="M65.07 128.1c2.75-4.1 5.51-5.82 8.27-5.13 4.13 1.02 4.13 4.1 8.26 4.1s4.13-6.15 10.33-5.13c6.2 1.03 4.14 3.08 10.34 4.1 6.2 1.03 4.13-6.15 9.3-5.12 5.16 1.02 5.16 7.17 10.33 5.12a18.79 18.79 0 008.26-6.15" stroke="#74B8A0" stroke-linecap="round"/><path d="M66.1 136.3c3.45-5.48 6.9-6.84 10.34-4.1 5.16 4.1 10.33 4.1 13.43 0 3.1-4.1 8.26 3.07 12.4 3.07 4.13 0 7.23-6.15 10.33-5.13 3.1 1.03 5.17 5.13 9.3 4.1 2.75-.68 5.5-2.4 8.26-5.12" stroke="#E9B165" stroke-linecap="round"/><path d="M30.97 32.77c.7-8.89 1.73-13.33 3.1-13.33 1.38 0 2.41 4.1 3.1 12.3.7-14.35 2.07-18.79 4.13-13.32 3.1 8.2 2.07 13.32 9.3 11.27 4.83-1.36 7.24-2.73 7.24-4.1" stroke="#F2B262" stroke-linecap="round"/><path clip-rule="evenodd" d="M65.07 43.02l-4.13-7.18c4.13-8.88 4.82-16.05 2.06-21.52-3.85-7.64-19.74-19.7-33.06-9.23C-.02 28.67 33.04 59.42 56.8 42c3.45 0 6.2.34 8.27 1.03z" stroke="#11312C" stroke-linejoin="round"/></svg>
