<svg width="180" height="180" fill="none" xmlns="http://www.w3.org/2000/svg"><path d="M158.9 138c32-42 27-97.4-11-123.7C110-12 53.1.7 21.1 42.6c-32 42-27 97.4 11 123.7 38 26.3 94.8 13.6 126.8-28.3z" fill="#DFE8F7"/><path d="M82.3 28.7c.7 3.5.7 5.9 0 7.2" stroke="#102D2D" stroke-linecap="round"/><path d="M75.3 30.8c1 0 1.6-.5 1.6-1 0-.6-.7-1-1.6-1-.9 0-1.6.4-1.6 1 0 .5.7 1 1.6 1zM87.2 31.8c.9 0 1.6-.4 1.6-1s-.7-1-1.6-1c-1 0-1.6.4-1.6 1s.7 1 1.6 1z" fill="#102D2D"/><path d="M79.1 42c1.4 1.4 2.9 1.8 4.3 1.1" stroke="#102D2D" stroke-linecap="round"/><path d="M72.1 41c2 0 3.8-1.3 3.8-3s-1.7-3.1-3.8-3.1c-2 0-3.8 1.4-3.8 3 0 1.8 1.7 3.2 3.8 3.2z" fill="#FFBC64"/><path fill-rule="evenodd" clip-rule="evenodd" d="M89.3 34.9c.5 0 1 0 1.4.2l-1.7 7c-2-.2-3.4-1.7-3.4-3.6 0-2 1.7-3.6 3.7-3.6z" fill="#FFBC64"/><path fill-rule="evenodd" clip-rule="evenodd" d="M92 25.7c-1.4-3.5-2.8-5.2-4.3-5.2-2.1 0-2.1 1-4.3 1-2.1 0-8.6-2-11.8-1-2.2.7-4.7 3.1-7.6 7.2-.7-1.4-1.8-2-3.2-2-1.5 0-2.2 1.7-2.2 5l2.2 4.2V40c-5-2-7.6-3.7-7.6-5.1 0-2 2.2-4.1 1.1-5.1-1-1-4.3-3.1-4.3-6.2 0-3 3.2-3 3.2-6.2 0-3-1-4 1.1-6.1 2.2-2 4.3-1 5.4-3 1-2.1 0-4.2 3.2-5.2 3.3-1 5.4 1 6.5 0 1-1 1-3.1 4.3-3.1C77 0 76 3 78 3c2.2 0 4.3-2 6.5 0 2.1 2.1 2.1 5.2 3.2 5.2s4.3 1 5.4 3c2.2 3.5 1.8 8.3-1 14.5z" fill="#102D2D"/><path fill-rule="evenodd" clip-rule="evenodd" d="M54.3 61.6a27 27 0 0017.3 7.2c5.7 0 10.7-1.7 15-5.2l10.8 7.2 4.3 3.1 4.3 6.2 1.1 3-21.5 4.1-11.9 2-9.7 2.1-7.5 1-1.1 6.2c1.4 4.8 2.9 7.6 4.3 8.2 2.2 1-2.2-1-5.4 1-3.2 2.1-5.4 3.1-7.5 8.3-5.4-5.2-8-5.6-9.7-9.3-2.2-4.4-2.2-10.8-1.1-18.4.3-2 2.2-4.2 3.2-6.2 1.5-2.8 2.4-5.4 4.3-8.2 2-2.8 5.6-6.9 10.8-12.3z" fill="#FFE9D2"/><path d="M75.9 50.3c7.1 0 11.5-2 12.9-6.2 1.4-4 2.5-12.3 3.2-24.6-5-8.2-11.1-11-18.3-8.2-7.2 2.7-13 8.2-17.2 16.4 2.1 4.1 3.2 6.5 3.2 7.2 0 1 1 17.4 0 19.5-1 2-11.8 14.4-14 17.4-2.2 3.1-6.5 9.3-8.6 14.4-1.5 3.4-1.5 9.3 0 17.5" stroke="#102D2D" stroke-linecap="round"/><path d="M81.3 50.3c-.8 3.4-.8 5.8 0 7.2 1 2 1.6 2.6 8.6 8.2 6.9 5.6 9.7 5.1 12.9 9.2 2.2 2.8 3.6 5.2 4.3 7.2M39.2 108.8l7.6 7.2a15 15 0 015.4-7.2c2.1-1.4 4.6-2 7.5-2-2.9-3.5-4.3-6.2-4.3-8.3 0-2 .7-5.4 2.1-10.2" stroke="#102D2D" stroke-linecap="round"/><path d="M59.7 106.7c6.5 7.6 10 11.3 10.8 11.3 1 0 8.6 1 14-1 3.6-1.4 2.5 0-3.2 4.1 6.4 0 9.6.4 9.6 1 0 .7-3.5 1.4-10.7 2 7.2.8 10.7 1.5 10.7 2.1 0 .7-3.2 1.4-9.6 2.1 4.3.7 6.4 1.4 6.4 2 0 1-9.7 3.1-16.1 2.1-4.4-.7-12.6-6.2-24.8-16.4" stroke="#102D2D" stroke-linecap="round"/><path d="M129.7 79c-3.7 7.7-6.2 13.2-7.5 16.5-8.9 23-19.5 36-36.6 40-11.2 2.6-21.7-2.9-31.3-8.2-5.5-3-13-9.2-22.6-18.5M143.7 154l-46.3-22.6" stroke="#102D2D" stroke-linecap="round"/><path d="M54.3 61.6a27 27 0 0017.3 7.2c5.7 0 10.7-1.7 15-5.2" stroke="#102D2D"/><path d="M52.2 63.6c5.7 6.2 12.9 9 21.5 8.2 8.6-.6 13.7-2.7 15.1-6.1" stroke="#102D2D"/><path d="M129.7 78.5c.3 0 .5.1.5.3A23.8 23.8 0 01132 85l.2.9.1 1 .9 6.6.3 2.3.2 1 .3 2.2.5 3.4.5 3 .6 3.4.9 5 1.3 6.9 1.8 9.4 2.2 11 2.6 12.8c0 .2-.1.5-.4.5l-1.7.6-3.4 1-2.4.6-2.4.7-2.3.6-2.2.6-2.2.6-2 .5-2.1.5-1.3.4-2 .4-1.1.3-1.8.4-1.2.3-1.1.2-1.1.2-1 .3-1 .2-1 .1-1 .2-1 .2-1 .1-.8.1-.4.1h-.5v.2l.5 1 .1.3c.1.2 0 .5-.3.6-.3.1-.6 0-.7-.3l-.7-1.5h-.1c-5.5.5-8.8.1-9.8-1.4h-.1c-1.8-2.9.2-4.8 3.5-4.3 2.6.4 5.2 2 7 4.4v.1h.8l.8-.2 1.4-.2.9-.2 1-.1 1-.2 1.5-.3 1-.2 1.7-.4 1.8-.4 1.8-.4 1.2-.3 2-.5 1.3-.3 2-.5 2.1-.6 2.2-.5 2.3-.7 2.3-.6 2.4-.7 1.7-.4 1.6-.5 3-.9-2.1-10.7-2-10-2-10.4-1.3-6.7-.8-4-.7-4-.3-2-.4-2-1-6.8-.3-2.2-1-7.7V87l-.2-1-.1-.9a27 27 0 00-1.2-4.7l-.2-.4-.1-.5h-1.1l-.8.1h-.9l-.8.1-.9.1-.9.1-1 .1-1 .2-1 .1-1 .2-1.1.2h-.6l-1.1.3-1.2.2-1.3.2-1.3.3-2.4.5-4.2.9-19.3 4.2-1.8.4-2 .4-1.3.3-1.4.3-2.2.4-2.3.4-1.6.3-2.5.5-1.7.2-1.7.3-2.7.5-3.7.6-3 .4-2 .3-1.3.2.4-1 2.8-.5 3-.4 1.8-.3L67 90l3.6-.6 2.5-.4 1.6-.3 1.6-.3 1.5-.2 2.2-.5 1.4-.2 2-.5 1.4-.2 5.4-1.2 19.8-4.3 1.2-.3 2-.4 1.9-.4 1.2-.2 1.1-.2 1.2-.2 1-.2 1-.2 1-.1h.6l1-.2h.4l1-.2h.8l.8-.1 1.3-.1h2.2zm-34 83.4c.5.8 2 1.2 4.6 1.2h.7c.8 0 1.7 0 2.7-.2h.4a9.4 9.4 0 00-5.7-3.6h-.3c-2.5-.5-3.6.6-2.4 2.6zM36 94.7v1l-1.6.2-8 1a.5.5 0 01-.6-.4c0-.2.1-.5.4-.5l9.8-1.3z" fill="#102D2D"/><path d="M40.8 76c1.5 0 2.7-1.2 2.7-2.6 0-1.4-1.2-2.6-2.7-2.6a2.6 2.6 0 00-2.6 2.6c0 1.4 1.2 2.6 2.6 2.6zM53.8 75c1.5 0 2.7-1.2 2.7-2.6 0-1.5-1.2-2.6-2.7-2.6a2.6 2.6 0 00-2.7 2.6c0 1.4 1.2 2.5 2.7 2.5zM61.3 84.2c1.5 0 2.7-1.2 2.7-2.6 0-1.4-1.2-2.6-2.7-2.6a2.6 2.6 0 00-2.7 2.6c0 1.4 1.2 2.6 2.7 2.6zM79.6 81c1.5 0 2.7-1 2.7-2.5 0-1.4-1.2-2.5-2.7-2.5a2.6 2.6 0 00-2.7 2.5c0 1.4 1.2 2.6 2.7 2.6zM68.9 70.8c1.5 0 2.7-1.1 2.7-2.5 0-1.5-1.2-2.6-2.7-2.6a2.6 2.6 0 00-2.7 2.6c0 1.4 1.2 2.5 2.7 2.5zM85 71.8c1.5 0 2.7-1.1 2.7-2.5s-1.2-2.6-2.7-2.6a2.6 2.6 0 00-2.7 2.6c0 1.4 1.2 2.5 2.7 2.5zM94.7 80c1.5 0 2.7-1 2.7-2.5 0-1.4-1.2-2.6-2.7-2.6a2.6 2.6 0 00-2.7 2.6c0 1.4 1.2 2.6 2.7 2.6zM91.5 89.3c1.5 0 2.7-1.2 2.7-2.6 0-1.4-1.2-2.5-2.7-2.5a2.6 2.6 0 00-2.7 2.5c0 1.4 1.2 2.6 2.7 2.6zM68.9 90.3c1.5 0 2.7-1.1 2.7-2.5 0-1.5-1.2-2.6-2.7-2.6a2.6 2.6 0 00-2.7 2.6c0 1.4 1.2 2.5 2.7 2.5zM44 86.2c1.6 0 2.8-1.1 2.8-2.6 0-1.4-1.2-2.5-2.7-2.5a2.6 2.6 0 00-2.7 2.5c0 1.5 1.2 2.6 2.7 2.6zM49.5 95.5c1.5 0 2.7-1.2 2.7-2.6 0-1.4-1.2-2.6-2.7-2.6a2.6 2.6 0 00-2.7 2.6c0 1.4 1.2 2.6 2.7 2.6zM39.8 108.8c1.5 0 2.7-1.2 2.7-2.6 0-1.4-1.2-2.5-2.7-2.5a2.6 2.6 0 00-2.7 2.5c0 1.4 1.2 2.6 2.7 2.6zM51.6 106.7c1.5 0 2.7-1.1 2.7-2.5s-1.2-2.6-2.7-2.6a2.6 2.6 0 00-2.7 2.6c0 1.4 1.2 2.5 2.7 2.5zM105.5 85.2c1.5 0 2.7-1.2 2.7-2.6 0-1.4-1.2-2.5-2.7-2.5a2.6 2.6 0 00-2.7 2.5c0 1.4 1.2 2.6 2.7 2.6zM38.7 98.5c1.5 0 2.7-1.1 2.7-2.5 0-1.5-1.2-2.6-2.7-2.6A2.6 2.6 0 0036 96c0 1.4 1.2 2.5 2.7 2.5z" fill="#FFBC64"/></svg>
