<svg xmlns="http://www.w3.org/2000/svg" width="60" height="41" viewBox="0 0 60 41" fill="none"><path d="M48.2372 6.38736C48.2258 6.41807 47.5397 6.12792 47.518 6.11983C46.6319 5.81967 45.7228 5.58092 44.8131 5.4054C42.4933 4.95021 40.1154 4.93322 37.7562 5.06963C28.3238 5.6156 17.7213 7.86311 9.22589 14.7564C6.35735 17.0849 2.06519 21.322 2.93064 26.632C3.29064 28.8381 4.98763 30.4701 6.25684 31.4912C9.34487 33.9644 12.9887 35.0972 16.5295 35.7976C26.9717 37.8652 39.3628 36.3459 49.3237 29.819C50.6345 28.9643 51.9078 27.9672 53.0828 26.7533C54.0436 25.7561 54.9536 24.6154 55.6751 23.2696C60.6856 13.953 50.4371 8.2565 45.7684 6.71731C44.1733 6.18842 43.7087 6.13783 42.0638 5.78204" stroke="#232221" stroke-width="2" stroke-miterlimit="10" stroke-linecap="round" stroke-linejoin="round"/><path d="M14.0557 25.99C14.4557 25.59 14.5557 24.69 14.6557 24.19C15.1557 22.79 15.5557 21.39 16.0557 19.99C16.1557 19.59 16.4557 18.29 16.9557 18.19C17.1557 18.19 17.5557 19.79 17.5557 19.99C17.9557 21.59 18.3557 23.09 18.6557 24.69C18.7557 25.09 18.9557 25.99 19.4557 25.89C20.2557 25.79 20.4557 23.69 20.5557 23.09C21.1557 21.19 21.4557 19.19 21.9557 17.29C22.1557 16.29 22.6557 15.29 22.6557 14.29" stroke="#232221" stroke-width="2" stroke-miterlimit="10" stroke-linecap="round" stroke-linejoin="round"/><path d="M32.4559 16.1896C32.2559 18.2896 32.6559 22.1896 32.8559 24.2896C32.8559 24.8896 32.8559 25.9896 33.5559 26.3896C34.1559 26.6896 34.7559 25.6896 34.9559 25.2896C36.0559 23.7896 36.6559 22.0896 37.0559 20.2896C37.0559 20.1896 37.6559 18.1896 37.7559 18.1896C37.8559 18.1896 37.6559 19.6896 37.6559 19.7896C37.5559 20.8896 37.6559 21.9896 38.0559 22.9896C38.8559 25.2896 40.4559 26.1896 41.4559 23.6896C41.7559 22.9896 41.9559 22.2896 42.1559 21.5896C42.4559 20.6896 42.7559 19.6896 42.9559 18.7896C43.3559 17.3896 43.9559 15.7896 43.9559 14.3896" stroke="#232221" stroke-width="2" stroke-miterlimit="10" stroke-linecap="round" stroke-linejoin="round"/><path d="M25.6549 15.7897C25.6549 15.4897 25.3549 16.6897 25.3549 16.7897C25.2549 17.5897 25.1549 18.3897 25.0549 19.1897C24.9549 19.5897 24.9549 20.0897 24.9549 20.4897C24.8549 22.2897 24.2549 27.6897 27.5549 25.3897" stroke="#232221" stroke-width="2" stroke-miterlimit="10" stroke-linecap="round" stroke-linejoin="round"/><path d="M25.0549 21.3896C25.0549 20.9896 25.7549 21.2896 26.0549 21.1896C26.8549 20.9896 27.5549 20.5896 28.2549 20.2896" stroke="#232221" stroke-width="2" stroke-miterlimit="10" stroke-linecap="round" stroke-linejoin="round"/><path d="M25.4549 16.9896C25.8549 17.1896 26.0549 16.3896 26.3549 16.1896C27.4549 15.4896 28.6549 14.6896 29.8549 14.3896" stroke="#232221" stroke-width="2" stroke-miterlimit="10" stroke-linecap="round" stroke-linejoin="round"/></svg>