<svg width="254" height="128" viewBox="0 0 254 128" fill="none" xmlns="http://www.w3.org/2000/svg">
<g clip-path="url(#clip0)">
<path d="M177 53.0072V74.9963H78V53.0072H177Z" fill="#012974"/>
<path d="M109.92 62.1931C109.487 62.7828 108.763 63.8078 108.323 64.4065C108.099 64.7109 107.695 65.2637 109.034 65.2637H116.084C116.084 65.2637 117.22 63.708 118.173 62.4069C119.468 60.6369 118.285 56.9541 113.653 56.9541H95.4107L92.2477 61.2792H109.487C110.357 61.2792 110.345 61.6126 109.92 62.1931V62.1931ZM104.741 66.3306C103.402 66.3306 103.806 65.7767 104.029 65.4723C104.47 64.8736 105.205 63.8594 105.638 63.2698C106.064 62.6892 106.075 62.3559 105.204 62.3559H97.3197L90.9673 71.0447H106.459C111.575 71.0447 114.424 67.5422 115.302 66.3312L104.741 66.3306V66.3306ZM114.818 71.0447H123.906L127.351 66.3301L118.265 66.3312C118.262 66.3306 114.818 71.0447 114.818 71.0447V71.0447ZM138.266 56.9541L134.78 61.7192H130.724L134.208 56.9541H125.123L119.045 65.2637H141.273L147.35 56.9541H138.266ZM127.962 71.0447H137.046L140.493 66.3312H131.409C131.405 66.3306 127.962 71.0447 127.962 71.0447ZM78 68.1902V69.1914H90.6564L91.3875 68.1902H78ZM92.7479 66.3306H78V67.3307H92.0151L92.7479 66.3306ZM78 71.0447H89.3005L90.0283 70.0492H78V71.0447ZM163.663 69.1908H177V68.1896H164.395L163.663 69.1908ZM162.308 71.0447H177V70.0492H163.036L162.308 71.0447ZM165.754 66.3306L165.023 67.3318H177V66.3306H165.754ZM153.854 65.2637L159.932 56.9541H150.31C150.307 56.9541 144.228 65.2637 144.228 65.2637H153.854ZM143.449 66.3306C143.449 66.3306 142.785 67.244 142.462 67.6839C141.321 69.235 142.33 71.0447 146.054 71.0447H160.644L164.091 66.3312H143.449V66.3306Z" fill="white"/>
</g>
<defs>
<clipPath id="clip0">
<rect width="99" height="22" fill="white" transform="translate(78 53)"/>
</clipPath>
</defs>
</svg>
