<svg width="254" height="128" viewBox="0 0 254 128" fill="none" xmlns="http://www.w3.org/2000/svg">
<g clip-path="url(#clip0)">
<path d="M104.031 71.732H100.655V59.2365H104.031V70.5282V71.732Z" fill="#012974"/>
<path d="M102.345 57.8528C101.266 57.8528 100.423 57.0146 100.423 55.9476C100.423 54.9071 101.284 54.0619 102.345 54.0619C103.437 54.0619 104.291 54.8896 104.291 55.9476C104.291 56.9979 103.42 57.8528 102.345 57.8528Z" fill="#012974"/>
<path d="M137.59 71.9911C135.683 71.9911 134.097 71.3302 133.004 70.0796C132.008 68.9427 131.457 67.3327 131.457 65.5503C131.457 63.7156 132.105 62.04 133.289 60.8299C134.466 59.6204 136.105 58.9553 137.896 58.9553C139.301 58.9553 140.436 59.2652 141.517 59.8744L141.403 62.6688C140.525 62.0037 139.408 61.6233 138.257 61.6233C136.274 61.6233 134.835 63.2096 134.835 65.3933C134.835 67.1478 135.723 69.1947 138.232 69.1947C139.434 69.1947 140.464 68.7054 141.172 68.2923L142.057 70.7042C141.159 71.3218 139.377 71.9911 137.59 71.9911" fill="#012974"/>
<path d="M89.3403 71.7322H85.76L84.0911 67.4731H78.252L76.6859 71.7322H73.2605L79.9521 54.3591H82.4138L89.3403 71.7322ZM79.3143 64.6285H83.0072L81.7135 60.9318C81.5057 60.3623 81.3362 59.8306 81.2049 59.3483C81.0867 59.7922 80.9144 60.2856 80.7053 60.8788L79.3143 64.6285Z" fill="#012974"/>
<path d="M99.6361 59.2362H96.2572L93.2508 67.3352L90.2945 59.2362H86.8906L91.4353 70.3716C91.7786 71.237 92.2997 71.7332 93.2863 71.7332H94.4605L99.6361 59.2362Z" fill="#012974"/>
<path d="M109.832 71.9912C107.401 71.9912 105.703 70.317 105.703 67.9218C105.703 65.399 107.611 63.8881 110.934 63.775L112.949 63.7032V63.5356C112.949 61.9542 111.728 61.6227 110.706 61.6227C109.688 61.6227 108.697 61.9298 107.599 62.5935L106.455 60.3938C107.81 59.4886 109.52 58.9554 111.4 58.9554C114.748 58.9554 116.377 60.4538 116.377 63.5356V69.2492C116.377 70.3484 116.471 71.0874 116.663 71.7337H114.714C113.884 71.7337 113.561 71.3994 113.313 70.7343C112.32 71.578 111.179 71.9912 109.832 71.9912V71.9912ZM112.949 66.1402L111.353 66.1876C109.317 66.2489 109.083 67.0753 109.083 67.6888C109.083 68.6644 109.766 69.2464 110.911 69.2464C111.715 69.2464 112.402 69.012 112.949 68.5514V66.1402Z" fill="#012974"/>
<path d="M146.908 71.9912C144.479 71.9912 142.779 70.317 142.779 67.9218C142.779 65.399 144.686 63.8881 148.012 63.775L150.025 63.7032V63.5356C150.025 61.9542 148.805 61.6227 147.785 61.6227C146.765 61.6227 145.774 61.9298 144.676 62.5935L143.533 60.3938C144.885 59.4886 146.597 58.9554 148.478 58.9554C151.826 58.9554 153.455 60.4538 153.455 63.5356V69.2492C153.455 70.3484 153.549 71.0874 153.74 71.7337H151.791C150.961 71.7337 150.637 71.3994 150.39 70.7343C149.397 71.578 148.256 71.9912 146.908 71.9912V71.9912ZM150.025 66.1402L148.429 66.1876C146.394 66.2489 146.159 67.0753 146.159 67.6888C146.159 68.6644 146.842 69.2464 147.988 69.2464C148.795 69.2464 149.477 69.012 150.025 68.5514V66.1402Z" fill="#012974"/>
<path d="M129.956 71.7321H126.577V64.4134C126.577 62.6805 126.065 61.9066 124.925 61.9066C124.037 61.9066 123.076 62.303 121.988 63.1223V71.7321H118.612V59.2365H119.903C120.887 59.2365 121.502 59.6154 121.781 60.3894L121.799 60.4551C123.234 59.418 124.53 58.9553 125.975 58.9553C127.9 58.9553 129.956 60.1459 129.956 63.4853L129.956 71.7321Z" fill="#012974"/>
<path d="M176.523 71.3709C176.107 70.0791 174.797 69.0734 170.19 68.7245C170.926 69.5822 171.7 70.4001 172.513 71.1678H174.853C175.822 71.1678 176.249 71.2495 176.523 71.3709Z" fill="#012974"/>
<path d="M158.845 58.0191C158.63 63.0271 161.301 68.0728 170.105 68.7162L170.192 68.7241C165.72 63.506 162.706 56.8245 161.496 51.2617C161.496 51.2617 159.04 53.4377 158.845 58.0186" fill="#012974"/>
<path d="M172.513 71.1678C169.044 71.1678 163.054 71.1692 163.054 71.1692C163.179 71.4651 163.614 71.6723 164.6 71.731C170.505 72.0827 171.343 76.7383 179.794 76.7383C180.538 76.7383 181.001 76.695 181.467 76.6063C178.128 75.5749 175.125 73.6347 172.513 71.1677" fill="#012974"/>
</g>
<defs>
<clipPath id="clip0">
<rect width="108.727" height="26" fill="white" transform="translate(73 51)"/>
</clipPath>
</defs>
</svg>
