<svg width="254" height="128" viewBox="0 0 254 128" fill="none" xmlns="http://www.w3.org/2000/svg">
<path d="M157 64C157 80.5182 143.64 94 127 94C110.482 94 97 80.6397 97 64C97 47.3603 110.36 34 127 34C143.518 34 157 47.4818 157 64Z" fill="#012974"/>
<path d="M117.769 69.1011C119.105 69.1011 120.077 68.1294 120.077 66.429C120.077 64.8501 119.105 63.8784 117.769 63.8784C116.433 63.8784 115.462 64.9715 115.462 66.429C115.462 68.0079 116.433 69.1011 117.769 69.1011ZM117.769 62.7853C119.713 62.7853 121.292 64.2428 121.292 66.429C121.292 68.6152 119.834 70.0727 117.769 70.0727C115.705 70.0727 114.247 68.6152 114.247 66.429C114.247 64.2428 115.826 62.7853 117.769 62.7853Z" fill="white"/>
<path d="M135.988 63.1497H135.38H134.651H134.044H133.801V63.8784V68.6152V69.344V69.8298H134.044H134.651H135.38H135.988H136.352V69.344V68.6152V63.8784V63.1497H135.988Z" fill="white"/>
<path d="M150.927 64.1216C150.927 64.8503 150.319 65.579 149.469 65.579C148.74 65.579 148.012 64.9718 148.012 64.1216C148.012 63.3928 148.619 62.6641 149.469 62.6641C150.319 62.6641 150.927 63.2714 150.927 64.1216Z" fill="white"/>
<path d="M113.033 63.3927H111.818H109.996H108.782V63.7571V64.3644V64.7287H109.146H109.996H111.697V68.7368C111.575 68.7368 110.725 69.1012 109.267 69.1012C106.474 69.1012 104.288 67.4008 104.288 64.1215C104.288 61.3279 106.11 59.1417 108.903 59.1417C110.118 59.1417 111.211 59.6275 111.94 60.3563L112.182 60.5992L113.033 59.6275L112.79 59.3846C111.575 58.413 110.239 57.9271 108.903 57.9271C105.502 57.9271 102.952 60.5992 102.952 64.2429C102.952 67.6437 105.259 70.3158 109.267 70.3158C110.968 70.3158 111.818 70.0729 112.911 69.7085H113.033V69.4656V64V63.3927Z" fill="white"/>
<path d="M147.77 68.4939C147.527 68.1295 147.405 67.7651 147.162 67.5222V67.4008V67.2793L147.041 67.1578L146.555 67.4008C146.434 67.5222 146.191 67.6437 146.069 67.6437C145.826 67.6437 145.705 67.5222 145.705 67.0364V65.8218V65.2145H147.162V63.1497H145.705V61.4493H143.154V67.5222C143.154 69.2226 144.369 69.9514 145.705 69.9514C146.555 69.9514 147.405 69.587 147.77 69.3441C147.77 69.3441 147.891 69.3441 147.891 69.2226L148.134 69.1012L147.77 68.4939Z" fill="white"/>
<path d="M141.211 63.1497H140.361V62.4209C140.361 61.8137 140.361 60.9635 141.09 60.9635C141.333 60.9635 141.575 61.0849 141.818 61.2064L143.276 59.506C142.79 59.0201 141.818 58.5343 140.847 58.5343C137.932 58.5343 137.567 61.2064 137.567 62.6639V63.0282V65.2145V68.6153V69.344V69.8298H137.932H138.539H139.389H139.997H140.361V69.4655V66.3076V65.9432V65.2145H141.211H142.183V64.9715V63.2711V63.1497H141.211Z" fill="white"/>
<path d="M132.345 63.1499H131.859H131.373H128.58H127.608V64.0001V65.2147H127.972H129.673V67.6438C129.673 67.6438 129.308 67.8868 128.337 67.8868C126.15 67.8868 124.814 66.3078 124.814 64.243C124.814 62.0568 126.029 60.3564 128.094 60.3564C128.944 60.3564 129.916 60.7208 130.644 61.3281L132.223 59.3847C131.98 59.1418 131.616 58.8989 131.373 58.656C130.401 58.0487 129.187 57.6843 127.972 57.6843C124.329 57.6843 121.899 60.5993 121.899 63.8787C121.899 67.5224 124.086 70.073 128.215 70.073C129.673 70.073 131.13 69.7086 131.859 69.3442C131.98 69.3442 131.98 69.3442 131.98 69.2228V68.0082V66.6722V63.1499H132.345Z" fill="white"/>
</svg>
