<svg width="254" height="128" viewBox="0 0 254 128" fill="none" xmlns="http://www.w3.org/2000/svg">
<path d="M115.788 58.1821H119.558L120.164 55.1441H116.394L115.788 58.1821ZM115.398 60.1366H119.169L116.773 72.1324C116.599 72.1927 116.059 72.4063 115.314 72.4063C114.307 72.4063 113.385 72.0166 113.385 70.6337C113.385 70.3736 113.416 70.0768 113.483 69.7409C114.232 65.9975 115.398 60.1366 115.398 60.1366V60.1366ZM152.836 59.8626C150.327 59.8626 149.329 61.3246 148.861 62.2142H148.816L148.961 60.139H145.235C145.211 60.5948 145.049 62.034 144.809 63.275L143.786 68.4624C143.663 69.0992 143.436 70.0409 143.436 70.5872C143.436 71.7508 144.03 72.4063 145.354 72.4063C146.096 72.4063 146.631 72.2049 146.826 72.1324L148.071 65.885C148.418 64.1596 149.671 63.0312 151.163 63.0312C152.366 63.0312 152.941 63.9036 152.941 64.6171C152.941 65.2384 152.785 65.9266 152.663 66.5356L152.127 69.2109C152.064 69.5321 151.927 70.1494 151.927 70.6329C151.927 71.8152 152.597 72.4063 153.871 72.4063C154.566 72.4063 155.006 72.2335 155.319 72.1324L156.437 66.5316C156.68 65.2661 156.769 64.5991 156.769 63.7935C156.769 61.4746 155.406 59.8626 152.836 59.8626V59.8626ZM136.088 62.7629C133.981 62.7629 132.813 64.9057 132.813 66.8161C132.813 68.4281 133.545 69.5069 135.208 69.5069C137.088 69.5069 138.56 67.9152 138.56 65.1992C138.56 63.9566 137.894 62.7629 136.088 62.7629ZM134.977 72.4071C130.94 72.4071 129.009 69.9985 129.009 66.9286C129.009 62.7164 131.916 59.8626 136.408 59.8626C140.307 59.8626 142.376 62.2101 142.376 65.2253C142.376 69.7441 139.272 72.4071 134.976 72.4071H134.977ZM120.858 69.5183C120.772 69.9504 120.718 70.2529 120.718 70.6239C120.718 71.9995 121.642 72.4063 122.621 72.4063C123.404 72.4063 123.888 72.1935 124.066 72.1324L125.879 63.0393L128.81 63.0385L129.389 60.1366H126.458L126.6 59.4215C126.866 58.081 127.499 57.4915 128.597 57.4915C129.33 57.4915 129.922 57.6212 130.128 57.675L130.68 54.9141C130.445 54.8554 129.361 54.5912 127.758 54.5912C125.204 54.5912 123.53 56.1347 123.035 58.6208L122.732 60.1366H120.824L120.244 63.0385H122.154C122.154 63.0385 121.401 66.7982 120.858 69.5183V69.5183ZM112.18 59.8626C110.287 59.8626 109.247 61.1697 108.839 62.2125H108.796L108.941 60.1366H105.214C105.181 60.8557 105.029 62.0723 104.649 63.986C104.264 65.9249 103.89 67.8582 103.503 69.7401C103.441 70.0373 103.409 70.3399 103.407 70.6435C103.407 71.6293 103.896 72.4055 105.343 72.4055C106.06 72.4055 106.558 72.2204 106.797 72.1324L107.906 66.5707C108.305 64.4434 109.031 63.0369 111.136 63.0369C112.094 63.0369 113.004 63.2399 113.194 63.2953L113.832 60.0958C113.693 60.0485 113.142 59.8626 112.179 59.8626H112.18ZM166.865 64.9987C167.066 63.8987 166.423 62.7629 164.97 62.7629C163.195 62.7629 162.415 63.9688 162.067 64.9987H166.865ZM168.547 69.462C168.547 71.1311 166.923 72.4104 164.048 72.4104C160.073 72.4104 158.13 69.9472 158.13 66.9319C158.13 63.9387 160.127 59.8651 165.002 59.8651C168.216 59.8651 170.619 61.4534 170.619 65.0908C170.619 65.9844 170.418 66.9564 170.333 67.3461H161.79C161.775 68.2186 162.514 69.7311 165.483 69.7311C166.808 69.7311 168.306 69.2655 168.547 69.1473V69.462ZM98.7419 64.9987C98.9433 63.8987 98.2999 62.7629 96.8469 62.7629C95.0706 62.7629 94.2922 63.9688 93.9443 64.9987H98.7419ZM100.424 69.462C100.424 71.1311 98.8 72.4104 95.9252 72.4104C91.9502 72.4104 90.0069 69.9472 90.0069 66.9319C90.0069 63.9387 92.0034 59.8651 96.878 59.8651C100.093 59.8651 102.495 61.4534 102.495 65.0908C102.495 65.9844 102.295 66.9564 102.209 67.3461H93.666C93.652 68.2186 94.3912 69.7311 97.3602 69.7311C98.6838 69.7311 100.183 69.2655 100.424 69.1473V69.462ZM77.7693 56.0548H81.5617V67.9821C81.5617 69.7751 82.4589 70.6908 83.8996 70.6908C84.0469 70.6908 84.1329 70.672 84.1615 70.6655C83.5304 71.6162 82.7118 72.3957 80.8324 72.3957C78.8433 72.3957 77.7693 71.0218 77.7693 68.9614V56.0548Z" fill="#012974"/>
<path d="M82.6177 66.7501V68.0025C82.6177 69.2117 83.2742 69.6447 83.9912 69.6447C84.7239 69.6447 85.116 69.1497 85.4753 68.5887C86.0786 67.647 93.4449 56.0548 93.4449 56.0548H89.5027L82.6177 66.7501Z" fill="#012974"/>
<path d="M174.026 61.5618H174.443C174.831 61.5618 175.022 61.3759 175.022 61.1501C175.022 61.0131 174.953 60.8125 174.593 60.8125H174.176L174.026 61.5618ZM174.014 60.6339H174.63C175.001 60.6339 175.225 60.8321 175.225 61.1215C175.225 61.6034 174.775 61.7045 174.563 61.7282L174.976 62.74H174.752L174.357 61.7404H173.99L173.791 62.74H173.594L174.014 60.6339ZM174.18 63.3597C175.196 63.3597 175.9 62.63 175.999 61.7249C176.099 60.8207 175.446 60.0901 174.538 60.0901C173.531 60.0901 172.817 60.8207 172.718 61.7249C172.62 62.63 173.272 63.3597 174.18 63.3597ZM174.561 59.8724C175.587 59.8724 176.331 60.7041 176.219 61.7257C176.107 62.7466 175.278 63.5782 174.156 63.5782C173.131 63.5782 172.388 62.7466 172.498 61.7257C172.611 60.7041 173.467 59.8724 174.561 59.8724Z" fill="#012974"/>
</svg>
