<svg width="254" height="128" viewBox="0 0 254 128" fill="none" xmlns="http://www.w3.org/2000/svg">
<path d="M83 54.0704C85.5385 54.0704 88.0907 54.0422 90.6292 54.0704C91.994 54.0844 93.3588 54.1548 94.7099 54.2814C95.9246 54.394 97.1256 54.6613 98.2174 55.2662C99.1046 55.7446 99.8552 56.3918 100.278 57.3626C100.947 58.8961 100.374 60.711 98.9681 61.6396C97.9172 62.329 96.7435 62.5963 95.5425 62.7792C95.2695 62.8214 94.9829 62.8355 94.6553 62.8777C95.3923 63.0043 96.0747 63.1169 96.7571 63.2576C97.9308 63.5108 99.0363 63.9047 100.019 64.6645C102.557 66.6201 102.325 70.2077 100.005 72.0086C98.8998 72.8668 97.6306 73.3311 96.2794 73.5703C95.365 73.7391 94.437 73.8517 93.5226 73.8517C90.1652 73.8798 86.7941 73.8657 83.4367 73.8657C83.3003 73.8657 83.1501 73.8657 83.0136 73.8517C83.0136 73.7672 83.0136 73.6688 83.0136 73.5843C83.1911 73.5562 83.3548 73.5281 83.5323 73.514C84.6923 73.4014 85.4157 72.8387 85.5658 71.8679C85.6477 71.3192 85.7023 70.7705 85.7159 70.2218C85.7296 65.9166 85.7296 61.6115 85.7159 57.3063C85.7159 56.8842 85.675 56.4481 85.5795 56.0401C85.3747 55.1537 84.8425 54.605 83.9417 54.4924C83.6005 54.4362 83.3003 54.3799 83 54.3377C83 54.2533 83 54.1548 83 54.0704ZM91.1069 54.4221C91.1069 54.5769 91.1069 54.7176 91.1069 54.8442C91.1069 60.1342 91.1069 65.4101 91.1069 70.7002C91.1069 71.0941 91.1205 71.488 91.1615 71.882C91.2979 73.1341 91.5982 73.4577 92.8129 73.4859C94.1504 73.514 95.3377 73.0779 95.8427 71.4036C96.0747 70.658 96.1703 69.8419 96.2385 69.0541C96.334 67.7738 96.2521 66.4935 95.8564 65.2554C95.5152 64.2283 94.8328 63.5671 93.8228 63.3138C93.3997 63.2013 92.9493 63.1591 92.499 63.0887C92.499 63.0043 92.499 62.8918 92.499 62.7792C92.5808 62.7651 92.6491 62.7651 92.7173 62.7511C94.1777 62.6244 94.9283 62.0195 95.2968 60.5703C95.6243 59.3182 95.638 58.052 95.365 56.7998C95.174 55.8712 94.7236 55.0693 93.7955 54.7035C92.9357 54.3799 92.0486 54.408 91.1069 54.4221Z" fill="#012974"/>
<path d="M153.942 54C153.942 55.9134 153.942 57.8409 153.942 59.7824C154.747 59.7824 155.525 59.7824 156.317 59.7824C156.317 59.9794 156.317 60.1342 156.317 60.3311C155.539 60.3311 154.775 60.3311 153.956 60.3311C153.956 60.4859 153.956 60.5985 153.956 60.7251C153.956 63.6093 153.942 66.4794 153.969 69.3636C153.983 70.1374 154.065 70.9112 154.215 71.6709C154.502 73.1341 155.307 73.6125 156.713 73.2467C156.754 73.3311 156.808 73.4296 156.89 73.6265C156.412 73.7391 155.989 73.8798 155.539 73.9361C154.433 74.0767 153.342 73.9923 152.277 73.6125C150.585 73.0075 149.711 71.6709 149.37 69.9404C149.247 69.2791 149.179 68.6038 149.179 67.9285C149.152 65.5508 149.165 63.159 149.165 60.7814C149.165 60.6547 149.165 60.514 149.165 60.3452C148.592 60.3452 148.06 60.3452 147.487 60.3452C147.487 60.1623 147.487 60.0075 147.487 59.7965C147.637 59.7965 147.814 59.7824 147.978 59.7965C149.93 60.0357 151.199 59.0086 152.195 57.4329C152.864 56.3636 153.355 55.224 153.669 54C153.765 54 153.86 54 153.942 54Z" fill="#012974"/>
<path d="M171.889 73.8375C171.752 73.8375 171.602 73.8375 171.438 73.8375C171.438 72.9512 171.438 72.0648 171.438 71.1784C171.411 71.1784 171.398 71.1644 171.37 71.1644C171.329 71.2488 171.275 71.3191 171.247 71.4176C170.947 72.1492 170.661 72.8949 170.36 73.6265C170.319 73.7109 170.224 73.7812 170.156 73.8516C170.101 73.7812 170.019 73.7109 169.992 73.6265C169.678 72.8667 169.378 72.107 169.077 71.3613C169.05 71.291 169.023 71.2347 168.941 71.1784C168.941 72.0648 168.941 72.9371 168.941 73.8375C168.791 73.8375 168.668 73.8375 168.518 73.8375C168.518 72.6698 168.518 71.5161 168.518 70.3765C169.077 70.2499 169.105 70.264 169.296 70.7704C169.582 71.4739 169.855 72.1774 170.169 72.9512C170.333 72.5432 170.483 72.1914 170.62 71.8538C170.77 71.488 170.934 71.1081 171.056 70.7282C171.152 70.4046 171.329 70.264 171.657 70.3343C171.725 70.3484 171.807 70.3484 171.889 70.3484C171.889 71.502 171.889 72.6698 171.889 73.8375Z" fill="#012974"/>
<path d="M126.073 73.9923C123.425 73.9642 121.351 73.0497 119.958 70.8267C119.058 69.3776 118.703 67.7596 118.839 66.0573C119.058 63.3278 120.218 61.1893 122.688 59.9653C123.848 59.3885 125.09 59.2337 126.346 59.29C128.352 59.3744 130.099 60.0919 131.409 61.7099C132.651 63.2294 133.142 65.0443 133.074 66.9999C133.006 68.7304 132.487 70.3062 131.368 71.6427C130.249 72.9793 128.816 73.7109 127.124 73.9219C126.741 73.9501 126.332 73.9642 126.073 73.9923ZM123.698 66.6904C123.753 68.1254 123.807 69.5605 123.889 70.9955C123.916 71.4036 124.039 71.8116 124.176 72.2055C124.462 73.0074 125.049 73.3732 125.936 73.3873C126.851 73.4014 127.478 73.0497 127.724 72.2196C127.943 71.5161 128.093 70.7704 128.106 70.0529C128.161 67.83 128.134 65.607 128.12 63.3841C128.106 62.554 128.024 61.7239 127.67 60.9501C127.328 60.2045 126.728 59.8809 125.95 59.895C125.186 59.895 124.571 60.1904 124.271 60.9501C124.094 61.4144 123.93 61.9068 123.889 62.3993C123.794 63.8062 123.753 65.2412 123.698 66.6904Z" fill="#012974"/>
<path d="M117.57 66.6623C117.516 68.7164 116.915 70.5876 115.427 72.079C114.445 73.0638 113.257 73.6547 111.906 73.8658C110.419 74.1049 108.945 74.0487 107.525 73.4718C105.587 72.6699 104.291 71.2207 103.677 69.1666C102.912 66.6201 103.199 64.2002 104.714 62.0195C105.833 60.4015 107.443 59.5855 109.34 59.3463C110.61 59.1916 111.879 59.2478 113.08 59.7121C115.618 60.6829 116.997 62.6385 117.461 65.3257C117.488 65.4946 117.516 65.6634 117.529 65.8322C117.543 66.0995 117.556 66.3669 117.57 66.6623ZM108.153 66.6764C108.18 66.6764 108.194 66.6764 108.221 66.6764C108.221 67.5205 108.208 68.3647 108.221 69.2088C108.249 70.1656 108.262 71.1223 108.563 72.0368C108.767 72.6699 109.136 73.1482 109.804 73.303C111.128 73.6266 112.056 73.0919 112.329 71.7413C112.507 70.869 112.589 69.9686 112.589 69.0682C112.602 66.9718 112.589 64.8896 112.52 62.7933C112.507 62.1883 112.329 61.5693 112.138 60.9924C111.865 60.2046 111.238 59.8669 110.446 59.8669C109.641 59.8528 109.013 60.1905 108.699 60.9784C108.535 61.4004 108.385 61.8506 108.358 62.3009C108.262 63.7641 108.221 65.2132 108.153 66.6764Z" fill="#012974"/>
<path d="M134.644 63.6937C134.644 62.3994 134.644 61.1331 134.644 59.8247C138.397 59.8247 142.15 59.8247 145.917 59.8247C145.944 60.2186 145.958 60.5985 145.753 60.9784C143.542 64.974 141.358 68.9697 139.161 72.9653C139.107 73.0638 139.066 73.1623 139.011 73.2467C139.038 73.2748 139.052 73.303 139.079 73.303C140.198 73.303 141.331 73.3452 142.45 73.2889C144.115 73.2186 145.262 72.1775 145.753 70.3766C145.808 70.1796 145.862 69.9827 145.89 69.7857C145.917 69.5324 146.04 69.5184 146.244 69.5887C146.244 70.9956 146.244 72.3885 146.244 73.8235C142.191 73.8235 138.151 73.8235 134.098 73.8235C134.057 73.4577 134.057 73.1342 134.248 72.7965C136.5 68.7868 138.752 64.763 141.004 60.7533C141.072 60.6407 141.126 60.5282 141.208 60.3734C141.099 60.3593 141.031 60.3453 140.963 60.3453C139.912 60.3734 138.861 60.3031 137.824 60.4438C136.268 60.6548 135.231 61.8366 135.026 63.4405C134.985 63.6375 134.944 63.8063 134.644 63.6937Z" fill="#012974"/>
<path d="M167.522 72.1633C167.522 73.2326 166.798 73.9783 165.816 73.9642C164.819 73.9501 164.096 73.1763 164.11 72.1071C164.123 71.0378 164.833 70.3062 165.829 70.3062C166.826 70.2921 167.522 71.066 167.522 72.1633ZM167.058 72.1352C167.058 71.4036 166.689 70.8549 166.116 70.7283C165.502 70.5876 164.929 70.8831 164.697 71.4599C164.424 72.1352 164.615 72.9653 165.12 73.317C165.529 73.5984 165.966 73.6265 166.389 73.3874C166.88 73.1341 167.058 72.6839 167.058 72.1352Z" fill="#012974"/>
<path d="M163.004 73.0497C163.113 73.106 163.222 73.1763 163.332 73.2326C162.949 73.8516 162.253 74.0908 161.516 73.8798C160.779 73.6687 160.288 72.9793 160.274 72.1352C160.261 71.3051 160.725 70.6298 161.462 70.3906C162.199 70.1514 162.909 70.3625 163.332 71.0097C163.222 71.08 163.113 71.1363 163.004 71.2066C162.431 70.5735 161.68 70.5172 161.093 71.1222C160.575 71.6709 160.602 72.6417 161.134 73.1763C161.667 73.7109 162.349 73.6828 163.004 73.0497Z" fill="#012974"/>
<path d="M158.063 72.9091C158.077 72.5151 158.391 72.2197 158.759 72.2338C159.128 72.2478 159.442 72.5855 159.428 72.9513C159.415 73.3312 159.101 73.6407 158.719 73.6266C158.35 73.6266 158.05 73.303 158.063 72.9091Z" fill="#012974"/>
</svg>
