<svg width="254" height="128" viewBox="0 0 254 128" fill="none" xmlns="http://www.w3.org/2000/svg">
<g clip-path="url(#clip0)">
<path d="M175.8 69.12H177.56V64.6L181 58.92H179L176.72 62.88H176.68L174.4 58.92H172.4L175.8 64.6V69.12ZM162.64 69.12H164.4V61.92H164.44L169.36 69.12H171.12V58.88H169.4V66.2H169.36L164.36 58.88H162.6L162.64 69.12ZM155 65.4L156.56 60.96H156.6L158.16 65.4H155ZM151.92 69.12H153.72L154.48 66.92H158.64L159.4 69.12H161.2L157.4 58.88H155.72L151.92 69.12ZM146.64 63.88V60.44H148.36C149.6 60.44 150.32 61.08 150.32 62.16C150.32 63.16 149.68 63.88 148.24 63.88H146.64ZM144.92 69.12H146.68V65.48H148.44C150.64 65.48 152.12 64.44 152.12 62.2C152.12 60.32 151.08 58.88 148.64 58.88H144.96L144.92 69.12ZM132.24 69.12H134V62.28L136.8 67.16H137.92L140.72 62.28H140.76V69.12H142.52V58.88H140.76L137.4 65H137.36L134 58.88H132.24V69.12ZM125.2 67.6C123.2 67.6 121.84 66 121.84 64C121.84 62 123.2 60.4 125.2 60.4C127.08 60.4 128.52 61.88 128.52 64C128.52 66.08 127.08 67.6 125.2 67.6ZM125.2 69.24C128.16 69.24 130.36 67.12 130.36 64C130.36 60.88 128.16 58.76 125.2 58.76C122.12 58.76 120.04 60.96 120.04 64C120.04 67.04 122.12 69.24 125.2 69.24ZM115 69.2C116.8 69.2 118.16 68.36 119.04 67.28L117.76 66.2C117.12 67 116.16 67.6 115 67.6C113.04 67.6 111.68 66.16 111.68 64.04C111.68 61.88 113.04 60.44 115 60.44C116.08 60.44 117 60.88 117.76 61.84L119.04 60.76C117.96 59.44 116.52 58.8 115 58.8C111.72 58.8 109.88 61.16 109.88 64.04C109.84 67.36 112.24 69.2 115 69.2ZM103.16 65.4L104.68 60.96H104.72L106.28 65.4H103.16ZM100.04 69.12H101.84L102.6 66.92H106.76L107.52 69.12H109.4L105.56 58.92H103.88L100.04 69.12ZM93.64 69.12H95.4V65.08H99.56V63.52H95.4V60.48H100.32V58.92H93.64V69.12ZM86.6 67.6C84.6 67.6 83.24 66 83.24 64C83.24 62 84.6 60.4 86.6 60.4C88.48 60.4 89.96 61.88 89.96 64C89.96 66.08 88.48 67.6 86.6 67.6ZM86.6 69.24C89.56 69.24 91.76 67.12 91.76 64C91.76 60.88 89.56 58.76 86.6 58.76C83.52 58.76 81.44 60.96 81.44 64C81.44 67.04 83.56 69.24 86.6 69.24ZM76.68 69.24C78.32 69.24 80.2 68.28 80.2 66.16C80.2 64.2 78.8 63.72 77.04 63.04C75.8 62.56 75.12 62.32 75.12 61.56C75.12 60.8 75.76 60.36 76.56 60.36C77.24 60.36 78.08 60.72 78.92 61.4L79.96 60.04C78.92 59.2 77.8 58.76 76.6 58.76C74.84 58.76 73.36 60 73.36 61.6C73.36 63.48 74.88 64.16 76.44 64.72C77.72 65.16 78.4 65.48 78.4 66.36C78.4 67.12 77.84 67.6 76.72 67.6C75.84 67.6 74.84 67.16 74.08 66.28L73 67.6C74.08 68.72 75.4 69.24 76.68 69.24Z" fill="#012974"/>
</g>
<defs>
<clipPath id="clip0">
<rect width="108" height="20" fill="white" transform="translate(73 54)"/>
</clipPath>
</defs>
</svg>
