<svg xmlns="http://www.w3.org/2000/svg" width="38" height="48" viewBox="0 0 38 48" fill="none"><path fill-rule="evenodd" clip-rule="evenodd" d="M5.92979 11.9385C6.27965 11.9385 6.56367 11.9347 6.84769 11.9391C9.56345 11.9843 12.282 11.8912 14.9939 12.1044C16.1634 12.1965 17.3358 12.3254 18.3809 12.9157C19.6587 13.6377 19.8808 14.9532 18.9221 16.0461C18.2352 16.8293 17.3447 17.3606 16.4798 17.9188C15.2567 18.7081 14.0095 19.4637 12.9181 20.4336C12.7613 20.5731 12.5102 20.7307 12.6185 20.9644C12.7195 21.1837 13.0057 21.111 13.22 21.1314C13.2468 21.1336 13.2747 21.1226 13.302 21.1215C14.1451 21.0956 14.933 20.8404 15.6824 20.4937C18.2486 19.3066 20.6977 17.9266 22.88 16.1205C23.1757 15.8758 23.4731 15.63 23.7895 15.4123C24.9055 14.6457 25.8351 14.9819 26.2062 16.2787C26.2888 16.5675 26.3384 16.8629 26.3429 17.1649C26.344 17.2647 26.315 17.3815 26.4378 17.446C27.4187 16.066 27.8629 13.8625 26.416 12.1794C26.1035 11.8168 25.7782 11.4618 25.4936 11.0782C25.0941 10.5392 25.175 9.95614 25.6811 9.51138C25.9205 9.30085 26.1934 9.14157 26.5036 9.0556C26.8278 8.96576 27.1553 8.8875 27.5286 8.79271C26.7346 8.27685 25.9138 7.9572 25.0121 7.84697C23.8202 7.70202 22.6836 7.95003 21.5581 8.30496C20.8517 8.52816 20.1581 8.81145 19.407 8.86435C18.6738 8.91616 18.2894 8.49785 18.4038 7.78083C18.4958 7.20491 18.7475 6.69456 19.0734 6.21398C19.1526 6.09714 19.2977 6.00675 19.2692 5.82102C19.1983 5.81496 19.128 5.79402 19.0639 5.80614C18.9288 5.83149 18.796 5.87062 18.6649 5.91085C16.5534 6.56449 14.5731 7.51464 12.614 8.51384C10.5589 9.56208 8.55738 10.7134 6.44147 11.6465C6.28746 11.7148 6.10444 11.7412 5.92979 11.9385ZM18.1276 42.7444C18.2013 42.7444 18.2426 42.7538 18.2777 42.7428C20.8662 41.9376 22.918 40.4628 24.2522 38.0841C24.5457 37.5611 24.8102 37.0193 25.1784 36.5398C25.7643 35.7765 26.6069 35.7875 27.1682 36.5657C27.4869 37.0066 27.647 37.512 27.7419 38.0389C27.7932 38.3244 27.8283 38.6126 27.8763 38.9361C28.7786 37.776 29.2222 35.6652 28.9399 34.0669C28.7948 33.2457 28.532 32.4587 28.2764 31.669C28.1659 31.3273 28.1073 30.9812 28.1397 30.6235C28.2011 29.9357 28.6921 29.5185 29.4147 29.5174C29.9554 29.5163 30.4721 29.6832 31.0396 29.7659C29.6954 27.8215 25.1405 25.2345 23.0212 25.2009C23.6813 26.0574 23.8794 27.0196 23.8019 28.0585C23.6177 30.5237 22.5698 32.4984 20.4143 33.8222C19.1253 34.6136 17.6896 34.9024 16.1858 34.8688C15.8912 34.8622 15.7115 34.93 15.5681 35.2061C15.3142 35.6933 14.9448 36.1028 14.5213 36.4583C14.4041 36.5569 14.2903 36.7134 14.1139 36.6104C14.6184 35.3014 14.4867 34.0658 13.7122 32.909C13.3953 32.4361 12.9332 32.1484 12.3434 32.0895C11.6504 32.02 11.0316 32.5392 10.9964 33.2231C10.9869 33.4127 10.9869 33.6051 10.9535 33.7914C10.8435 34.4064 10.4775 34.6869 9.84529 34.623C9.1238 34.5503 8.66122 34.0983 8.28235 33.5329C8.18079 33.3819 8.1501 33.1818 7.97824 33.0628C7.58708 34.2598 7.81028 35.2056 8.70084 36.116C9.0362 36.4588 9.40224 36.7724 9.72811 37.1229C10.2482 37.6812 10.1851 38.3106 9.58805 38.7901C9.30403 39.0183 8.97705 39.1538 8.6283 39.2481C8.54516 39.2701 8.42966 39.2437 8.40176 39.3853C10.2331 40.7284 12.2692 41.0492 14.4739 40.6055C15.4727 40.4044 16.4291 40.0367 17.4396 39.8879C18.2437 39.7695 18.6304 40.1034 18.6404 40.9141C18.6432 41.1318 18.6181 41.3462 18.5734 41.5623C18.4886 41.9729 18.3045 42.3465 18.1276 42.7444ZM29.9956 9.91976C29.8153 9.88173 29.7355 9.86465 29.6557 9.84811C28.711 9.65632 27.7697 9.60176 26.849 9.95669C26.1426 10.2289 26.1119 10.3496 26.6108 10.8947C27.2625 11.6073 27.883 12.3469 28.1385 13.2927C28.6658 15.2453 28.1179 16.9472 26.8077 18.4413C26.353 18.9594 25.8229 19.3948 25.1611 19.7475C25.2403 19.3071 25.3268 18.9368 25.3709 18.5615C25.4535 17.8549 25.4741 17.1462 25.2504 16.4572C25.0874 15.9535 24.8642 15.8697 24.4318 16.1618C24.1143 16.3768 23.8119 16.6165 23.5183 16.8634C21.5202 18.5427 19.2821 19.8494 16.9429 20.9969C15.9168 21.4995 14.8404 21.8743 13.6457 22.0881C13.9432 22.2639 14.2065 22.3356 14.4693 22.405C16.1896 22.8608 17.9574 23.0708 19.7045 23.3888C22.1886 23.8413 24.6449 24.388 26.95 25.4495C29.5252 26.6344 31.6031 28.3462 32.8469 30.9299C32.9423 31.1283 33.0271 31.3317 33.1544 31.6171C32.1249 31.1481 31.1936 30.7453 30.1808 30.5645C29.0447 30.3611 28.9292 30.4752 29.2774 31.556C29.6379 32.6742 29.9504 33.7991 29.9816 34.984C30.053 37.7148 28.8411 39.8427 26.7631 41.6929C26.8981 40.9395 27.0108 40.2869 26.9757 39.6223C26.9322 38.8033 26.8557 37.9887 26.474 37.2431C26.2916 36.8865 26.1387 36.8755 25.9205 37.2056C25.6493 37.6151 25.4072 38.0433 25.1661 38.471C23.7064 41.058 21.547 42.7825 18.6694 43.6235C17.7794 43.8836 16.876 44.0693 15.8431 44.1625C16.0563 43.9575 16.1986 43.8329 16.3275 43.6957C16.9452 43.0365 17.4089 42.287 17.6438 41.414C17.7889 40.875 17.6711 40.7686 17.117 40.9152C16.3855 41.1081 15.6623 41.3385 14.923 41.4967C12.508 42.0125 10.2068 41.8047 8.12439 40.3608C7.34543 39.8207 6.66356 39.1819 6.07878 38.4324C6.47552 38.4324 6.83263 38.4274 7.18919 38.4335C7.73268 38.4429 8.26445 38.3844 8.76664 38.1684C9.05234 38.0455 9.1578 37.8851 8.87099 37.6355C8.62324 37.4194 8.38776 37.1885 8.15843 36.9532C6.2618 35.0121 6.48891 32.5816 8.61877 30.6295C8.60092 30.8197 8.57581 30.9789 8.57302 31.1382C8.55628 32.0062 8.68183 32.828 9.3955 33.4408C9.53333 33.5593 9.71133 33.6839 9.87705 33.6304C10.0578 33.5725 9.99535 33.3526 10.0037 33.1961C10.0511 32.2713 10.5243 31.6342 11.3714 31.276C12.3657 30.856 13.6664 31.2308 14.3923 32.1104C14.5313 32.2785 14.61 32.5017 14.8527 32.6637C14.832 31.1851 14.4264 29.9208 13.35 28.9337C11.1147 26.8851 7.01063 26.7325 4.54039 28.6708C2.02216 30.6472 1.23818 33.2832 1.86648 36.337C2.49143 39.3721 4.30324 41.624 6.84602 43.338C9.22922 44.9445 11.9087 45.7652 14.7439 46.1476C19.1264 46.739 23.3638 46.2623 27.3523 44.3118C32.4792 41.8042 35.7468 37.9182 36.2998 32.1198C36.5269 29.7394 36.1491 27.4787 34.8311 25.4236C33.824 23.8534 32.4334 22.6624 30.9374 21.5734C30.4163 21.1942 29.8773 20.8354 29.4191 20.3769C28.8042 19.7618 28.7211 19.214 29.1552 18.4617C29.3393 18.1431 29.5553 17.8417 29.769 17.5413C31.1339 15.6228 32.1768 13.5765 32.3999 11.1956C32.7208 7.77422 31.4592 5.11998 28.4493 3.34976C26.3669 2.12515 24.0507 1.73164 21.6692 1.65283C18.6275 1.55253 15.6875 2.10366 12.835 3.11332C9.51101 4.28943 6.4398 5.91195 3.81332 8.27905C3.08793 8.93269 2.41164 9.63703 2.02886 10.5541C1.74428 11.2359 2.04002 11.6591 2.79554 11.6938C3.15824 11.7104 3.50977 11.6542 3.85741 11.561C5.53418 11.113 7.0469 10.2967 8.57525 9.51633C11.2296 8.16111 13.8299 6.69676 16.6187 5.61434C18.2676 4.97448 19.9477 4.45753 21.7495 4.49996C21.9124 4.50382 22.0938 4.45477 22.274 4.60137C22.1284 4.69065 22.0112 4.75789 21.8979 4.83174C20.917 5.4716 20.0705 6.23712 19.5599 7.30851C19.4863 7.46338 19.3546 7.66179 19.4656 7.80232C19.5733 7.93845 19.777 7.81004 19.9304 7.76926C21.0721 7.46724 22.1803 7.04177 23.3666 6.90454C26.1577 6.58268 28.2976 7.65407 29.9956 9.91976ZM19.2899 0H22.6842C22.7478 0.138884 22.8761 0.072749 22.9749 0.0821182C24.5166 0.22927 26.0305 0.503181 27.4812 1.05817C30.0927 2.05626 32.1383 3.68319 33.2916 6.26027C34.4768 8.90899 34.3011 11.5897 33.3977 14.2698C32.8213 15.9805 31.8531 17.4846 30.8024 18.9395C30.6289 19.1804 30.644 19.3121 30.8872 19.4934C31.7784 20.1575 32.6946 20.7897 33.5388 21.515C35.5984 23.2846 37.1011 25.3977 37.7204 28.0657C37.8198 28.495 37.8153 28.9458 38 29.3559V32.5452C37.8661 32.6075 37.9191 32.7354 37.9068 32.8329C37.4699 36.4461 35.9711 39.5606 33.3564 42.1228C30.115 45.2989 26.1404 47.0229 21.6814 47.7581C21.1608 47.8435 20.6235 47.8225 20.1179 48H15.9782C15.4771 47.801 14.9375 47.8385 14.4175 47.7647C11.5248 47.3541 8.77837 46.5279 6.30311 44.9583C3.26539 43.0327 1.13775 40.4314 0.280671 36.9058C0.172978 36.4627 0.178558 35.9981 0 35.5704V33.4447C0.117737 33.3934 0.0786773 33.2827 0.0926271 33.1956C0.434678 31.0803 1.34812 29.2561 2.97076 27.8188C4.95667 26.0601 7.32312 25.5007 9.92394 25.7884C11.3446 25.9455 12.6693 26.3952 13.8076 27.2732C15.6417 28.6879 16.3738 30.5893 16.2215 32.8434C16.1947 33.2452 16.3264 33.3064 16.6863 33.3019C19.4182 33.2667 22.2991 31.0583 22.1675 27.3889C22.1357 26.495 21.6787 25.8474 20.8662 25.4511C20.5314 25.288 20.181 25.1634 19.8127 25.0984C18.43 24.8537 17.0412 24.6388 15.6657 24.3604C14.3265 24.0898 13.0013 23.7459 11.878 22.9192C10.6644 22.0264 10.5165 20.8238 11.4567 19.6654C11.5683 19.5276 11.6905 19.3964 11.8172 19.2713C13.0074 18.0941 14.4588 17.2691 15.8487 16.3608C16.4352 15.9778 17.0389 15.6179 17.5551 15.1406C17.9864 14.7421 17.9401 14.4765 17.3994 14.229C17.2381 14.1552 17.0652 14.1023 16.8927 14.056C16.1567 13.8603 15.4012 13.7942 14.6446 13.7396C12.0426 13.5539 9.43458 13.6432 6.82986 13.5892C5.32606 13.5578 3.81947 13.5379 2.3553 13.1527C0.259468 12.6016 -0.297969 11.2381 0.786215 9.38186C1.41563 8.30441 2.27271 7.41544 3.23023 6.63063C7.48996 3.13702 12.3869 1.05045 17.8503 0.226514C18.3301 0.153765 18.8312 0.20502 19.2899 0Z" fill="#FFB3B3"/></svg>