<svg version="1.1" class="frontpage-logowall-bg" xmlns="http://www.w3.org/2000/svg" xmlns:xlink="http://www.w3.org/1999/xlink" x="0px" y="0px" width="702px" height="698px" viewBox="0 0 702 698" style="overflow:visible;enable-background:new 0 0 702 698;" xml:space="preserve" preserveAspectRatio="none"><path fill='#fae3e9' class="st0" d="M701.9,251.2c-1.3,75.7-17.9,95.2-13.6,157.1c4.2,61.9-12.3,101-9.2,135.3c3.1,34.2,12.1,101.6,9.9,144.5h-11 h-4c-56.2,0-55.3,10.5-128,10c-72.7-0.6-245.7-7.5-305.1-5.7c-59.4,1.8-89.2-5.1-122.1-3.8c-32.9,1.3-53.6,8.5-94.8,7.5h-3.1 C18.2,569.6-1.3,533.5,0.1,457.8c1.3-75.7,17.9-95.2,13.6-157.1c-4.2-61.9,12.3-101,9.2-135.3C19.8,131.3,10.8,63.9,13,21h11 C145.3,18.3,180-1.3,252.7,0.1C325.4,1.4,344,18,403.5,13.7c59.4-4.2,97,12.3,129.9,9.2C566.2,19.7,636.8,3.2,678,5.4h3.1 C683.8,131.8,703.3,175.4,701.9,251.2z"></path></svg>