<svg xmlns="http://www.w3.org/2000/svg" width="281" height="303" viewBox="0 0 281 303" fill="none">
<path fill-rule="evenodd" clip-rule="evenodd" d="M243.047 267.9C243.212 268.546 243.373 269.202 243.505 269.884C244.152 272.924 244.667 276.236 245.711 279.118C246.456 281.188 248.168 285.325 248.168 285.325C248.717 286.664 248.571 289.12 248.571 289.12L209.02 285.185C209.02 285.185 208.111 282.829 208.228 281.82C208.576 278.824 209.319 275.939 208.493 272.64C208.342 271.999 207.958 271.325 207.699 270.64C207.299 269.607 207.053 268.567 207.044 267.568C206.988 260.415 208.37 251.299 210.892 244.602C211.115 244.024 211.404 243.475 211.747 242.945C211.987 242.574 212.36 242.269 212.493 241.846C212.932 240.491 213.325 238.569 214.081 237.391C215.002 235.983 216.275 235.457 217.767 235.561C218.047 235.581 220.041 235.616 221.171 237.87C221.297 238.123 221.935 239.529 222.215 240.147C222.839 240.582 224.172 241.352 225.279 241.979L225.308 241.976C225.908 241.892 226.784 241.867 227.843 242.44C228.756 242.936 229.93 244.085 230.703 245.197C232.003 246.348 233.238 247.826 234.156 249.373L234.317 249.558L234.356 249.597C234.575 249.645 234.805 249.715 235.048 249.811C235.451 249.976 236.024 250.367 236.36 250.617C236.907 251.01 237.903 252.237 238.773 253.586C239.258 254.138 239.764 254.865 240.215 255.712C241.122 257.465 241.749 259.702 241.713 260.968C241.708 261.38 241.664 261.76 241.581 262.107C242.317 264.008 243.016 266.226 243.047 267.65C243.052 267.735 243.042 267.818 243.047 267.9Z" fill="#FCE8D1"/>
<path fill-rule="evenodd" clip-rule="evenodd" d="M119.422 180.37C120.781 179.496 122.075 179.192 123.645 179.766C124.823 179.939 125.834 180.806 126.162 181.956C126.275 182.35 126.263 183.182 126.263 183.182L126.265 183.182C126.184 183.793 126.102 184.404 126.052 185.019C125.957 186.178 125.857 187.34 125.83 188.503C125.893 188.811 125.924 189.123 125.952 189.436C125.964 189.555 125.958 189.675 125.952 189.794C127.314 191.615 127.292 194.511 127.531 196.497C127.677 197.707 127.754 198.924 127.897 200.135C128.12 202.028 128.376 203.916 128.631 205.805C129.32 210.911 129.755 216.522 133.06 220.76C135.251 221.902 136.232 223.233 138.012 225.02C140.203 227.217 140.537 227.174 142.632 229.569C144.363 229.25 146.184 230.57 147.624 231.323C150.426 232.1 153.822 232.414 156.709 232.742C157.838 232.102 159.574 231.21 161.039 230.841C162.216 229.472 164.04 229.544 165.443 230.535C166.237 231.096 166.532 232.278 166.54 233.171C166.544 233.636 166.35 234.554 166.35 234.554C166.287 234.842 166.183 235.117 166.044 235.371C165.644 238.593 164.981 245.053 164.981 245.053C166.032 251.753 165.384 258.65 165.497 265.378C165.525 267.039 165.741 268.689 165.834 270.347C165.948 272.414 165.991 274.487 166.116 276.555C166.18 277.607 166.142 280.427 166.251 281.474L149.279 281.021C149.202 279.737 149.124 278.453 149.017 277.173C148.665 272.972 148.418 268.758 147.906 264.576C147.784 263.574 147.486 262.603 147.324 261.607C145.17 261.986 142.84 260.45 140.793 260.079C139.197 259.792 137.717 260.249 136.128 259.701C133.842 258.913 131.797 257.323 129.899 255.906C125.304 252.472 121.399 248.389 118.678 243.288C114.378 235.225 113.602 225.639 112.603 216.766C112.245 213.588 111.746 208.085 111.768 204.554C111.778 202.794 111.783 200.638 112.406 198.879C112.388 198.592 112.395 198.018 112.395 198.018C111.87 196.101 113.088 191.253 113.116 191.098C113.235 189.625 113.217 188.765 113.859 187.506L114.077 186.68L114.165 186.357C113.687 184.221 112.867 181.376 115.519 180.299C115.808 180.182 116.114 180.08 116.428 180.068C116.873 180.052 117.318 180.141 117.758 180.223C118.36 180.222 118.995 180.302 119.422 180.37ZM137.51 249.915C137.165 250.072 136.788 250.169 136.411 250.203C136.854 250.583 137.319 250.94 137.81 251.251L137.51 249.915ZM119.977 183.692C119.938 183.492 119.928 183.284 119.862 183.092C119.828 182.99 119.872 183.307 119.884 183.416C119.894 183.528 119.933 183.706 119.963 183.813L119.977 183.692ZM117.26 180.341C117.575 180.325 117.906 180.327 118.222 180.341C118.361 180.348 118.497 180.375 118.635 180.37C118.718 180.367 118.469 180.345 118.386 180.336C118.19 180.316 117.994 180.295 117.797 180.284C117.663 180.295 117.475 180.314 117.26 180.341Z" fill="#FCE8D1"/>
<path fill-rule="evenodd" clip-rule="evenodd" d="M145.691 262.657C144.763 262.774 143.355 262.75 141.331 262.248C138.84 261.627 135.287 260.21 130.344 257.296C119.854 251.11 114.709 239.843 112.411 227.435C108.508 206.369 112.855 182.02 111.89 175.157C111.796 174.485 112.264 173.862 112.936 173.769C113.608 173.674 114.23 174.143 114.325 174.815C115.29 181.664 110.934 205.965 114.829 226.988C116.993 238.672 121.715 249.352 131.593 255.176C135.319 257.374 138.208 258.672 140.419 259.413C141.64 259.819 142.645 260.047 143.462 260.18C145.301 260.478 145.984 260.232 145.984 260.232C146.314 260.028 146.725 260.006 147.077 260.17C147.428 260.336 147.672 260.666 147.727 261.051C147.727 261.051 148.666 271.011 149.271 276.731C149.513 279.036 149.713 280.645 149.713 280.645C149.74 280.83 149.61 281.002 149.426 281.027C149.24 281.053 149.069 280.927 149.043 280.741C149.043 280.741 148.78 279.139 148.368 276.861C147.567 272.447 146.237 265.501 145.691 262.657Z" fill="#03312E"/>
<path fill-rule="evenodd" clip-rule="evenodd" d="M112.801 179.798C118.68 182.664 126.083 179.705 126.083 179.705C126.798 179.414 127.142 178.598 126.852 177.884C126.561 177.17 125.745 176.827 125.031 177.117C125.031 177.117 118.897 179.662 114.025 177.287C113.332 176.949 112.495 177.237 112.157 177.931C111.819 178.623 112.107 179.461 112.801 179.798Z" fill="#03312E"/>
<path fill-rule="evenodd" clip-rule="evenodd" d="M177.863 205.06C176.126 215.28 173.765 221.2 170.846 224.769C167.451 228.922 163.33 229.767 158.87 230.736C156.878 231.171 150.32 231.315 143.839 228.008C139.832 225.965 135.865 222.592 133.028 217.127C131.217 213.669 130.006 208.119 129.07 201.624C127.369 189.809 126.667 174.911 125.814 163.415C125.789 163.015 125.444 162.711 125.043 162.736C124.643 162.761 124.34 163.107 124.365 163.507C124.978 175.065 125.305 190.042 126.83 201.929C127.707 208.765 129.011 214.59 130.877 218.24C133.975 224.243 138.326 227.95 142.712 230.197C149.896 233.87 157.184 233.62 159.393 233.139C164.386 232.051 168.943 230.978 172.747 226.326C175.845 222.542 178.456 216.303 180.277 205.469C180.397 204.8 179.936 204.164 179.274 204.052C178.598 203.939 177.969 204.39 177.863 205.06Z" fill="#03312E"/>
<path fill-rule="evenodd" clip-rule="evenodd" d="M207.009 192.732C206.176 196.267 205.512 203.318 205.934 210.707C206.3 216.994 207.442 223.516 209.876 228.359C211.107 230.834 212.832 232.953 214.87 234.903C221.367 241.104 231.263 245.523 238.126 255.468C239.269 257.133 240.32 259.837 241.378 262.954C241.955 264.65 242.546 266.461 243.105 268.319C244.64 273.374 246.077 278.703 246.975 282.716C247.807 286.439 248.215 288.995 248.215 288.995C248.237 289.161 248.393 289.276 248.565 289.249C248.723 289.222 248.84 289.066 248.817 288.897C248.817 288.897 248.355 285.849 247.651 281.499C246.846 276.559 245.87 269.935 244.32 264.276C243.146 259.971 241.637 256.244 240.145 254.071C233.174 243.966 223.178 239.427 216.566 233.124C214.745 231.374 213.178 229.48 212.071 227.258C209.776 222.68 208.734 216.508 208.397 210.569C207.984 203.47 208.602 196.696 209.405 193.302C209.566 192.643 209.151 191.978 208.494 191.82C207.837 191.664 207.17 192.073 207.009 192.732Z" fill="#03312E"/>
<path fill-rule="evenodd" clip-rule="evenodd" d="M215.049 233.815C213.044 236.666 209.416 245.249 207.866 258.958C207.596 261.39 207.338 263.981 207.257 266.734C207.117 272.173 207.512 278.21 208.333 284.835C208.353 285.157 208.648 285.398 208.961 285.369C209.289 285.339 209.533 285.056 209.499 284.73C209.147 277.948 209.382 271.821 209.736 266.335C210.046 261.849 210.419 257.792 211.007 254.198C212.679 244.04 215.413 237.578 217.065 235.229C217.454 234.674 217.318 233.906 216.773 233.517C216.211 233.126 215.45 233.259 215.049 233.815Z" fill="#03312E"/>
<path fill-rule="evenodd" clip-rule="evenodd" d="M167.076 228.757C165.289 231.296 163.999 238.163 163.808 249.134C163.742 252.727 163.707 256.777 163.96 261.261C164.261 266.661 164.707 274.692 165.538 281.34C165.557 281.664 165.853 281.903 166.166 281.874C166.492 281.847 166.737 281.561 166.704 281.238C166.37 274.789 166.553 266.919 166.431 261.667C166.287 254.798 166.177 248.967 166.435 244.198C166.838 236.853 168.25 230.998 169.629 229.054C170.018 228.499 169.344 228.851 168.798 228.462C168.239 228.069 167.478 228.204 167.076 228.757Z" fill="#03312E"/>
<path fill-rule="evenodd" clip-rule="evenodd" d="M218.647 271.795C218.647 271.795 218.728 272.366 218.925 273.266C219.332 275.104 220.259 278.296 220.96 281.097C221.659 283.938 222.202 286.337 222.202 286.337C222.251 286.581 222.485 286.739 222.724 286.693C222.963 286.647 223.123 286.414 223.073 286.17C223.073 286.17 222.698 283.741 222.324 280.837C221.946 277.975 221.639 274.671 221.343 272.807C221.203 271.897 221.065 271.338 221.065 271.338C220.946 270.671 220.302 270.233 219.627 270.36C218.965 270.486 218.528 271.13 218.647 271.795Z" fill="#03312E"/>
<path fill-rule="evenodd" clip-rule="evenodd" d="M169.412 229.061C173.39 231.997 180.578 235.994 191.079 236.909C200.996 237.772 209.409 234.137 213.055 231.81C213.695 231.395 213.894 230.531 213.476 229.88C213.059 229.231 212.196 229.04 211.541 229.456C208.198 231.598 200.441 234.917 191.332 234.125C181.514 233.271 174.785 229.554 171.08 226.812C170.458 226.355 169.584 226.487 169.118 227.107C168.666 227.729 168.79 228.602 169.412 229.061Z" fill="#03312E"/>
<path fill-rule="evenodd" clip-rule="evenodd" d="M243.595 277.608C243.762 277.672 243.939 277.703 244.116 277.695L248.647 277.481C249.343 277.45 249.879 276.858 249.847 276.164C249.839 275.983 249.792 275.807 249.711 275.646L247.194 270.741C246.877 270.122 246.116 269.878 245.497 270.195C245.225 270.336 245.011 270.569 244.9 270.855L242.885 275.974C242.63 276.62 242.949 277.352 243.595 277.608ZM118.213 214.058C118.379 214.124 118.556 214.153 118.734 214.145L123.265 213.932C123.96 213.899 124.497 213.309 124.465 212.613C124.457 212.433 124.41 212.258 124.327 212.098L121.812 207.192C121.494 206.572 120.735 206.328 120.115 206.645C119.842 206.785 119.63 207.02 119.517 207.305L117.502 212.424C117.247 213.071 117.565 213.803 118.213 214.058ZM223.483 246.35C223.649 246.417 223.826 246.445 224.003 246.437L228.534 246.224C229.23 246.192 229.766 245.601 229.734 244.906C229.727 244.725 229.68 244.55 229.598 244.391L227.081 239.485C226.764 238.865 226.004 238.62 225.385 238.938C225.112 239.078 224.899 239.312 224.788 239.598L222.773 244.716C222.517 245.365 222.836 246.097 223.483 246.35ZM224.016 264.597C224.181 264.661 224.36 264.69 224.537 264.682L229.068 264.471C229.762 264.437 230.3 263.848 230.268 263.151C230.258 262.972 230.213 262.796 230.13 262.635L227.615 257.73C227.298 257.111 226.538 256.865 225.919 257.183C225.644 257.323 225.432 257.559 225.319 257.843L223.305 262.961C223.049 263.61 223.368 264.341 224.016 264.597ZM205.555 249.603C205.625 249.767 205.728 249.915 205.858 250.036L209.888 253.795C210.396 254.268 211.194 254.242 211.67 253.732C211.878 253.506 212.001 253.213 212.008 252.904L212.15 247.392C212.167 246.697 211.618 246.119 210.923 246.1C210.743 246.096 210.565 246.13 210.401 246.199L206.229 247.952C205.588 248.222 205.286 248.961 205.555 249.603ZM203.589 273.978C203.66 274.14 203.765 274.287 203.897 274.407L207.248 277.452C207.763 277.92 208.56 277.884 209.028 277.368C209.15 277.235 209.24 277.079 209.295 276.907L210.992 271.662C211.209 271.001 210.844 270.29 210.183 270.076C209.888 269.98 209.573 269.997 209.291 270.118L204.241 272.318C203.603 272.596 203.311 273.339 203.589 273.978ZM101.475 205.083C101.641 205.148 101.818 205.177 101.996 205.169L106.527 204.956C107.222 204.923 107.759 204.333 107.727 203.638C107.718 203.458 107.671 203.282 107.589 203.122L105.074 198.216C104.755 197.596 103.996 197.352 103.377 197.669C103.104 197.809 102.891 198.044 102.779 198.329L100.763 203.448C100.509 204.096 100.827 204.828 101.475 205.083ZM114.387 245.136C114.669 245.261 114.985 245.28 115.278 245.187L120.53 243.528C121.194 243.318 121.562 242.609 121.353 241.945C121.298 241.777 121.21 241.619 121.091 241.487L118.076 238.106C117.612 237.587 116.815 237.541 116.295 238.005C116.162 238.123 116.055 238.271 115.982 238.434L113.747 243.474C113.465 244.109 113.752 244.853 114.387 245.136ZM149.142 250.5C149.291 250.769 149.533 250.974 149.822 251.077L155.014 252.916C155.67 253.15 156.391 252.805 156.624 252.15C156.684 251.981 156.706 251.801 156.691 251.623L156.314 247.108C156.256 246.413 155.647 245.897 154.953 245.956C154.775 245.97 154.602 246.024 154.446 246.11L149.631 248.786C149.022 249.126 148.804 249.891 149.142 250.5ZM129.593 230.573C129.661 230.736 129.765 230.884 129.895 231.005L133.924 234.765C134.434 235.24 135.231 235.212 135.706 234.703C135.916 234.478 136.036 234.184 136.044 233.876L136.187 228.363C136.205 227.667 135.655 227.088 134.959 227.071C134.78 227.067 134.603 227.099 134.439 227.168L130.266 228.921C129.624 229.191 129.323 229.931 129.593 230.573ZM227.573 283.191C227.722 283.46 227.965 283.665 228.254 283.766L233.446 285.607C234.102 285.841 234.822 285.496 235.054 284.841C235.114 284.672 235.137 284.492 235.123 284.314L234.746 279.797C234.688 279.104 234.077 278.588 233.384 278.647C233.206 278.661 233.034 278.713 232.876 278.801L228.061 281.477C227.454 281.814 227.234 282.582 227.573 283.191ZM146.421 274.873C146.702 274.998 147.018 275.016 147.312 274.923L152.563 273.265C153.227 273.055 153.595 272.348 153.386 271.682C153.332 271.514 153.243 271.356 153.124 271.223L150.109 267.842C149.645 267.323 148.848 267.278 148.329 267.742C148.195 267.862 148.088 268.007 148.016 268.171L145.78 273.21C145.498 273.846 145.785 274.592 146.421 274.873ZM131.845 250.431C131.914 250.595 132.016 250.744 132.146 250.866L136.177 254.623C136.686 255.098 137.483 255.07 137.958 254.561C138.168 254.336 138.289 254.042 138.297 253.734L138.439 248.222C138.457 247.527 137.907 246.947 137.212 246.93C137.033 246.925 136.855 246.958 136.691 247.027L132.518 248.782C131.876 249.051 131.575 249.789 131.845 250.431ZM106.543 223.663C106.586 223.967 106.738 224.245 106.972 224.444L111.16 228.025C111.69 228.478 112.485 228.417 112.938 227.888C113.054 227.751 113.14 227.591 113.19 227.419L114.454 223.068C114.649 222.4 114.264 221.699 113.596 221.505C113.424 221.456 113.244 221.444 113.068 221.468L107.615 222.238C106.925 222.337 106.445 222.973 106.543 223.663Z" fill="#FAAE52"/>
<path fill-rule="evenodd" clip-rule="evenodd" d="M152.841 236.128C153.016 236.165 153.196 236.161 153.369 236.124L157.796 235.134C158.475 234.982 158.903 234.308 158.751 233.628C158.711 233.454 158.635 233.287 158.527 233.143L155.204 228.745C154.784 228.19 153.993 228.08 153.438 228.499C153.194 228.683 153.025 228.951 152.963 229.251L151.859 234.639C151.72 235.322 152.159 235.988 152.841 236.128ZM107.159 190.514C107.351 190.753 107.625 190.913 107.928 190.964L113.359 191.884C114.046 191.999 114.696 191.537 114.812 190.851C114.842 190.674 114.834 190.494 114.789 190.321L113.64 185.936C113.463 185.263 112.774 184.86 112.101 185.036C111.927 185.082 111.766 185.163 111.627 185.276L107.345 188.741C106.804 189.179 106.72 189.973 107.159 190.514Z" fill="#FAAE52"/>
<path d="M171.171 174.336C170.551 174.324 170.059 173.693 170.074 172.927C170.088 172.161 170.603 171.549 171.224 171.561C171.844 171.573 172.336 172.203 172.321 172.97C172.307 173.736 171.792 174.347 171.171 174.336Z" fill="#00312E"/>
<path fill-rule="evenodd" clip-rule="evenodd" d="M171.219 171.087C170.832 171.08 170.472 171.234 170.187 171.507C169.852 171.83 169.624 172.327 169.613 172.891C169.603 173.456 169.812 173.961 170.135 174.297C170.409 174.581 170.762 174.748 171.149 174.756C171.535 174.763 171.896 174.609 172.179 174.336C172.516 174.012 172.744 173.515 172.754 172.951C172.765 172.387 172.556 171.881 172.232 171.545C171.959 171.262 171.604 171.094 171.219 171.087ZM171.202 171.981C171.392 171.985 171.555 172.101 171.67 172.265C171.795 172.443 171.865 172.679 171.861 172.934C171.856 173.189 171.777 173.422 171.644 173.595C171.524 173.755 171.356 173.865 171.166 173.862C170.975 173.858 170.813 173.741 170.697 173.577C170.573 173.399 170.503 173.164 170.508 172.908C170.512 172.653 170.591 172.421 170.722 172.247C170.844 172.088 171.011 171.977 171.202 171.981Z" fill="#00312E"/>
<path d="M188.067 176.203C187.451 176.131 187.022 175.456 187.111 174.695C187.199 173.933 187.771 173.374 188.387 173.446C189.004 173.517 189.432 174.193 189.343 174.954C189.255 175.715 188.684 176.274 188.067 176.203Z" fill="#00312E"/>
<path fill-rule="evenodd" clip-rule="evenodd" d="M188.449 172.936C188.065 172.891 187.692 173.01 187.382 173.254C187.017 173.544 186.742 174.016 186.677 174.577C186.612 175.138 186.771 175.661 187.06 176.026C187.305 176.335 187.641 176.536 188.026 176.581C188.409 176.625 188.783 176.507 189.091 176.262C189.457 175.973 189.732 175.5 189.798 174.939C189.863 174.379 189.703 173.856 189.414 173.49C189.169 173.181 188.832 172.98 188.449 172.936ZM188.346 173.824C188.534 173.846 188.686 173.978 188.784 174.152C188.892 174.342 188.939 174.583 188.909 174.836C188.88 175.09 188.779 175.314 188.63 175.473C188.495 175.621 188.317 175.714 188.129 175.692C187.939 175.67 187.789 175.539 187.689 175.364C187.583 175.175 187.536 174.934 187.565 174.68C187.595 174.427 187.696 174.203 187.843 174.043C187.98 173.896 188.156 173.802 188.346 173.824Z" fill="#00312E"/>
<path fill-rule="evenodd" clip-rule="evenodd" d="M164.871 180.138C164.647 179.94 165.517 178.291 165.517 178.291C165.517 178.291 165.792 178.311 165.927 178.343C166.166 178.399 166.208 178.427 166.389 178.528L166.438 178.545C167.066 178.806 167.717 178.986 168.251 179.397C168.553 179.63 169.011 179.998 169.322 180.359C170.063 180.978 170.66 181.715 171.012 182.676C171.25 183.113 171.443 183.567 171.575 184.012C171.754 184.614 171.573 185.481 171.433 186.059C171.245 186.828 170.972 187.47 170.696 188.201C170.553 188.578 170.488 188.979 170.295 189.335C170.012 189.855 169.499 190.339 169.074 190.744C168.51 191.28 167.592 191.971 166.768 192.023C166.605 192.034 166.281 191.977 166.281 191.977C165.995 191.917 165.76 191.714 165.661 191.439C165.651 191.411 165.643 191.384 165.637 191.355C165.593 191.29 165.557 191.218 165.53 191.141C165.514 191.098 165.5 191.053 165.492 191.008C165.459 190.99 165.426 190.972 165.393 190.95C165.233 190.845 165.083 190.679 165.02 190.417C165.012 190.383 165.005 190.342 165 190.297C164.962 190.205 164.937 190.1 164.931 189.989C164.917 189.782 165.03 189.458 165.13 189.223C165.046 188.707 165.061 188.147 165.109 187.611C164.938 187.452 164.834 187.226 164.839 186.981C164.822 186.965 164.807 186.947 164.791 186.929C164.683 186.808 164.554 186.602 164.567 186.274C164.572 186.158 164.591 186.045 164.604 185.931L164.71 185.022C164.743 184.733 164.875 184.601 164.924 184.547C164.942 184.527 164.959 184.508 164.979 184.491C164.998 184.464 165.019 184.439 165.04 184.416C165.044 184.185 165.058 183.949 165.084 183.695L165.097 183.571L165.088 183.422L165.081 183.284C165.038 183.206 164.995 183.096 164.974 182.961C164.952 182.812 164.955 182.528 164.957 182.486L164.959 182.43C164.945 182.292 164.947 182.128 164.969 181.933L164.969 181.927L165.132 180.525L165.114 180.504C165.051 180.425 165.007 180.349 164.979 180.277L164.954 180.262L164.978 180.274L164.972 180.26L164.899 180.218C164.871 180.202 164.799 180.152 164.799 180.152C164.799 180.152 164.843 180.167 164.906 180.185C164.891 180.168 164.88 180.152 164.871 180.139L164.871 180.138Z" fill="#FAAE52"/>
<path fill-rule="evenodd" clip-rule="evenodd" d="M166.046 178.598C166.046 178.598 168.396 179.452 169.991 181.39C170.88 182.472 171.522 183.906 171.329 185.738C171.143 187.52 170.315 188.847 169.341 189.823C167.592 191.575 165.353 192.186 165.353 192.186L164.55 192.426L165.031 194.032L165.834 193.792C165.834 193.792 168.431 192.964 170.382 190.815C171.487 189.597 172.399 187.967 172.519 185.834C172.642 183.659 171.82 181.998 170.709 180.77C168.871 178.742 166.27 177.93 166.27 177.93L165.937 177.818L165.713 178.486L166.046 178.598Z" fill="#FAAE52"/>
<path fill-rule="evenodd" clip-rule="evenodd" d="M167.778 189.468C167.771 189.449 167.762 189.425 167.754 189.406C167.555 188.989 167.733 188.489 168.15 188.289C168.567 188.089 169.069 188.266 169.267 188.685C170.016 190.251 168.622 191.203 167.268 191.408C166.811 191.477 166.384 191.163 166.314 190.705C166.245 190.247 166.559 189.819 167.017 189.75C167.243 189.716 167.49 189.652 167.684 189.538C167.713 189.52 167.753 189.489 167.778 189.468Z" fill="#FAAE52"/>
<path fill-rule="evenodd" clip-rule="evenodd" d="M167.738 189.425C167.569 189.745 167.278 189.973 166.892 189.928C166.432 189.875 166.016 190.206 165.962 190.664C165.909 191.124 166.239 191.54 166.698 191.594C167.827 191.725 168.727 191.144 169.221 190.209C169.437 189.8 169.28 189.292 168.872 189.076C168.463 188.861 167.955 189.016 167.738 189.425Z" fill="#FAAE52"/>
<path fill-rule="evenodd" clip-rule="evenodd" d="M166.857 189.984L166.834 189.883C166.745 189.429 167.042 188.988 167.497 188.9C167.951 188.81 168.391 189.108 168.48 189.562C168.479 189.555 168.473 189.529 168.473 189.529C168.473 189.529 168.549 189.816 168.564 190C168.583 190.217 168.547 190.414 168.49 190.553C168.147 191.378 167.145 191.814 166.319 191.718C165.859 191.665 165.53 191.247 165.583 190.789C165.637 190.329 166.053 189.998 166.513 190.051C166.613 190.063 166.725 190.045 166.823 190.001L166.857 189.984Z" fill="#FAAE52"/>
<path fill-rule="evenodd" clip-rule="evenodd" d="M193.337 180.743C191.561 180.537 189.869 181.065 188.571 182.095C187.27 183.126 186.364 184.659 186.159 186.426C185.953 188.194 186.484 189.895 187.514 191.196C188.541 192.497 190.067 193.398 191.842 193.605C193.617 193.811 195.306 193.283 196.607 192.252C197.904 191.222 198.814 189.688 199.02 187.921C199.225 186.153 198.691 184.453 197.664 183.152C196.634 181.851 195.111 180.949 193.337 180.743ZM193.179 182.097C194.585 182.26 195.795 182.973 196.611 183.982C197.427 185.03 197.85 186.375 197.688 187.766C197.522 189.195 196.802 190.408 195.772 191.203C194.742 192.036 193.401 192.451 191.995 192.288C190.589 192.124 189.379 191.413 188.563 190.365C187.747 189.355 187.324 188.01 187.49 186.581C187.652 185.19 188.372 183.978 189.402 183.145C190.432 182.349 191.773 181.934 193.179 182.097Z" fill="#FAAE52"/>
<path fill-rule="evenodd" clip-rule="evenodd" d="M194.859 192.388C194.744 192.477 194.611 192.555 194.46 192.619C194.143 192.754 193.736 192.822 193.474 192.862C191.304 193.191 189.767 192.782 188.078 191.35C186.736 190.21 186.222 188.341 186.391 186.505C186.555 184.705 187.374 182.967 188.549 182.036C189.236 181.491 189.95 181.341 190.7 181.32C191.247 181.303 191.818 181.373 192.41 181.296C193.63 181.138 195.094 181.477 196.102 182.251C197.04 182.626 197.59 183.445 197.867 184.42C198.119 184.632 198.311 184.839 198.409 185.004C198.476 185.114 198.531 185.262 198.548 185.443C198.569 185.495 198.589 185.56 198.607 185.638C198.641 185.795 198.684 186.121 198.702 186.266C198.761 186.717 198.607 187.304 198.554 187.758C198.482 188.383 198.411 189.197 198.199 189.918C198.025 190.512 197.754 191.045 197.363 191.432C197.261 191.534 196.832 191.833 196.381 192.039C196.023 192.204 195.651 192.298 195.394 192.29C195.313 192.288 195.237 192.279 195.166 192.264C195.085 192.318 194.992 192.358 194.891 192.381L194.859 192.388Z" fill="#FDAF52"/>
<path fill-rule="evenodd" clip-rule="evenodd" d="M180.441 192.028C179.863 192.476 179.099 192.836 177.959 192.964C177.2 193.049 176.275 193.026 175.11 192.839C174.799 192.777 174.573 192.515 174.603 192.259C174.635 192 174.911 191.844 175.221 191.906C176.25 192.159 177.08 192.261 177.769 192.238C178.77 192.207 179.457 191.936 179.993 191.59C180.118 191.502 180.321 191.528 180.444 191.649C180.568 191.769 180.566 191.939 180.441 192.028Z" fill="#00312E"/>
<path fill-rule="evenodd" clip-rule="evenodd" d="M180.738 192.63C181.148 192.34 181.212 191.788 180.809 191.394C180.492 191.085 179.967 191.053 179.645 191.282L179.665 191.267C179.198 191.569 178.597 191.799 177.725 191.827C177.077 191.848 176.297 191.747 175.33 191.51L175.307 191.505C174.64 191.369 174.091 191.785 174.024 192.339C173.963 192.849 174.359 193.409 174.974 193.533C174.981 193.536 174.989 193.537 174.997 193.538C176.222 193.734 177.198 193.755 177.995 193.665C179.267 193.522 180.116 193.115 180.758 192.615L180.738 192.63Z" fill="#00312E"/>
<path fill-rule="evenodd" clip-rule="evenodd" d="M179.29 171.697L177.65 179.027C177.512 179.626 177.363 180.254 177.261 180.863C177.192 181.273 177.141 181.674 177.153 182.063C177.173 182.717 177.346 183.334 177.851 183.871C177.9 183.919 177.902 183.996 177.855 184.051C177.808 184.099 177.729 184.102 177.679 184.054C177.034 183.513 176.74 182.84 176.643 182.106C176.587 181.681 176.6 181.229 176.66 180.776C176.741 180.146 176.916 179.509 177.057 178.886L178.697 171.562C178.735 171.399 178.898 171.293 179.062 171.33C179.225 171.367 179.328 171.534 179.29 171.697Z" fill="#03312E"/>
<path fill-rule="evenodd" clip-rule="evenodd" d="M177.297 184.518C176.537 183.88 176.186 183.086 176.071 182.219C176.009 181.745 176.021 181.251 176.087 180.745C176.172 180.098 176.349 179.444 176.494 178.809L178.135 171.479C178.241 171.014 178.704 170.721 179.168 170.829C179.633 170.93 179.923 171.394 179.818 171.86C179.818 171.86 178.178 179.184 178.177 179.19C178.041 179.783 177.895 180.4 177.795 180.997C177.731 181.372 177.682 181.737 177.694 182.091C177.71 182.606 177.839 183.099 178.239 183.528C178.491 183.79 178.495 184.209 178.243 184.472C177.989 184.741 177.571 184.759 177.297 184.518ZM177.43 184.3C177.436 184.307 177.442 184.313 177.448 184.32L177.43 184.3ZM178.028 183.671L178.046 183.691C178.04 183.684 178.034 183.677 178.028 183.671Z" fill="#00312E"/>
<path fill-rule="evenodd" clip-rule="evenodd" d="M164.05 169.857C164.08 168.934 166.537 169.051 166.507 169.938C166.345 174.804 166.133 186.072 166.321 189.476C166.614 194.758 169.184 198.421 172.606 200.788C173.278 201.254 173.992 201.655 174.71 202.044C175.195 202.306 175.678 202.569 176.173 202.811C177.985 203.694 179.854 204.397 181.735 204.775C183.102 205.05 184.445 205.169 185.715 205.18L185.751 205.811C184.44 205.972 183.042 205.996 181.594 205.929C179.534 205.834 177.405 205.544 175.341 204.883C174.755 204.696 174.179 204.477 173.619 204.217C172.777 203.827 171.98 203.34 171.212 202.814C167.203 200.072 164.207 195.779 163.865 189.612C163.674 186.17 163.885 174.776 164.05 169.857Z" fill="#03312E"/>
<path fill-rule="evenodd" clip-rule="evenodd" d="M208.442 183.755C208.265 185.272 207.944 193.8 207.944 193.8C207.944 193.8 208.696 191.194 210.323 189.905C212.258 188.371 214.939 188.19 216.961 185.14C218.698 182.52 217.432 178.771 218.513 176.281C219.523 173.952 222.347 172.59 222.829 168.25C223.228 164.671 220.004 162.793 219.808 160.338C219.541 156.973 221.931 155.006 220.446 151.138C219.338 148.253 216.469 147.914 214.785 146.038C212.809 143.839 213.951 140.646 210.766 138.001C207.909 135.631 204.866 137.089 202.4 135.992C200.03 134.938 200.463 132.324 195.972 131.422C192.392 130.702 190.877 134.662 186.643 134.688C183.454 134.708 182.233 132.894 179.667 134.507C176.61 136.431 176.35 139.131 173.283 141.815C171.221 143.62 168.997 142.752 167.219 145.276C165.56 147.63 166.442 152.64 165.652 155.752C164.929 158.605 162.422 161.178 162.485 163.946C162.595 168.805 165.411 170.314 165.411 170.314C165.411 170.314 166.277 164.609 166.987 161.998C167.673 159.476 169.666 154.654 169.666 154.654C169.666 154.654 176.331 157.375 179.245 157.476C183.29 157.614 186.494 156.264 190.145 156.684C200.37 157.86 205.376 170.87 205.376 170.87C205.376 170.87 209.73 167.259 212.601 171.99C214.251 174.708 213.073 182.657 208.442 183.755Z" fill="#03312E"/>
<path fill-rule="evenodd" clip-rule="evenodd" d="M170.531 156.627C169.902 158.21 168.913 160.786 168.475 162.399C167.78 164.954 167.136 164.847 166.49 170.681C166.323 172.194 166.213 170.271 166.104 171.686C166.065 172.183 165.13 171.902 164.689 171.666C164.689 171.666 161.087 169.904 160.953 163.978C160.923 162.635 161.357 161.321 161.986 160.016C162.72 158.495 163.759 156.986 164.168 155.371C164.623 153.576 164.477 151.122 164.651 148.959C164.796 147.152 165.168 145.522 165.967 144.388C167.103 142.775 168.366 142.221 169.69 141.805C170.536 141.541 171.432 141.393 172.276 140.654C173.686 139.421 174.439 138.173 175.203 137.022C176.149 135.598 177.113 134.298 178.855 133.203C180.604 132.104 181.893 132.163 183.29 132.504C184.213 132.728 185.201 133.157 186.638 133.148C188.845 133.135 190.161 131.797 191.564 130.939C192.967 130.081 194.415 129.537 196.279 129.913C199.025 130.463 200.25 131.564 201.166 132.662C201.762 133.376 202.087 134.166 203.029 134.585C204.092 135.057 205.287 134.921 206.515 134.98C208.245 135.064 210.021 135.378 211.753 136.816C213.656 138.397 214.293 140.126 214.723 141.803C215.02 142.961 215.119 144.101 215.933 145.008C216.682 145.842 217.715 146.305 218.664 146.91C219.99 147.757 221.197 148.788 221.888 150.584C222.776 152.903 222.528 154.653 222.073 156.326C221.739 157.559 221.226 158.727 221.347 160.214C221.425 161.211 222.209 162.047 222.844 163.043C223.797 164.54 224.605 166.225 224.361 168.417C224.083 170.93 223.131 172.585 222.097 173.946C221.287 175.013 220.387 175.83 219.928 176.889C219.46 177.969 219.556 179.328 219.524 180.695C219.482 182.562 219.277 184.433 218.248 185.987C217.065 187.77 215.696 188.723 214.335 189.445C213.257 190.018 212.178 190.397 211.282 191.107C209.989 192.131 209.258 194.303 208.661 197.478C208.216 199.841 208.472 195.437 207.706 195.314C206.939 195.191 206.24 198.957 206.354 197.21C207.107 185.585 206.741 185.11 206.919 183.575C206.994 182.933 207.463 182.406 208.091 182.256C209.882 181.832 210.882 179.982 211.399 178.075C211.942 176.068 211.965 173.891 211.293 172.784C210.706 171.818 210.071 171.314 209.411 171.151C207.832 170.759 206.363 172.05 206.363 172.05C205.983 172.366 205.472 172.479 204.993 172.354C204.515 172.229 204.124 171.882 203.947 171.419C203.947 171.419 202.242 166.998 198.794 163.219C196.594 160.807 193.672 158.632 189.974 158.209C188.289 158.014 186.707 158.244 185.078 158.491C183.226 158.773 181.322 159.081 179.197 159.008C176.995 158.933 172.754 157.457 170.531 156.627ZM209.71 188.446C210.486 187.898 211.349 187.496 212.244 187.059C213.414 186.487 214.658 185.835 215.684 184.288C216.393 183.221 216.422 181.908 216.452 180.624C216.493 178.838 216.495 177.078 217.106 175.668C217.565 174.609 218.332 173.711 219.148 172.719C220.067 171.598 221.06 170.301 221.306 168.077C221.499 166.342 220.545 165.137 219.793 163.995C219.017 162.819 218.379 161.682 218.282 160.458C218.158 158.903 218.5 157.605 218.874 156.324C219.277 154.951 219.752 153.602 219.016 151.687C218.494 150.325 217.418 149.74 216.398 149.126C215.402 148.528 214.423 147.928 213.645 147.063C212.677 145.984 212.276 144.731 211.946 143.383C211.61 142.013 211.377 140.499 209.789 139.181C208.394 138.023 206.922 138.06 205.552 138.023C204.222 137.99 202.95 137.914 201.781 137.393C200.566 136.854 199.891 136.032 199.192 135.12C198.543 134.273 197.812 133.355 195.675 132.927C194.337 132.658 193.422 133.378 192.409 134.052C190.829 135.106 189.127 136.208 186.656 136.223C185.206 136.231 184.112 135.92 183.136 135.644C182.261 135.398 181.537 135.147 180.49 135.806C179.175 136.634 178.479 137.646 177.764 138.723C176.867 140.074 175.957 141.519 174.301 142.968C173.286 143.856 172.252 144.24 171.221 144.553C170.265 144.844 169.292 145.006 168.48 146.159C167.79 147.137 167.721 148.686 167.649 150.295C167.56 152.34 167.563 154.484 167.147 156.127C166.756 157.668 165.905 159.141 165.138 160.595C164.557 161.697 164.002 162.774 164.026 163.909C164.051 164.987 164.233 165.86 164.479 166.557C164.784 164.83 165.164 162.856 165.508 161.592C166.211 159.006 168.25 154.064 168.25 154.064C168.573 153.283 169.468 152.909 170.252 153.228C170.252 153.228 176.546 155.842 179.303 155.936C181.222 156.002 182.943 155.706 184.616 155.452C186.514 155.163 188.361 154.928 190.327 155.154C194.809 155.67 198.397 158.223 201.065 161.147C203.544 163.864 205.213 166.881 206.089 168.686C207.166 168.199 208.637 167.792 210.149 168.165C211.43 168.484 212.784 169.315 213.921 171.188C214.899 172.8 215.156 175.957 214.365 178.879C213.657 181.496 212.136 183.849 209.897 184.872C209.837 185.774 209.771 187.093 209.71 188.446Z" fill="#00312E"/>
<path d="M159.578 260.533C160.18 259.934 160.182 258.963 159.584 258.363C158.986 257.763 158.013 257.761 157.412 258.357C156.81 258.955 156.807 259.926 157.405 260.526C158.004 261.126 158.976 261.131 159.578 260.533Z" fill="#03312E"/>
<path fill-rule="evenodd" clip-rule="evenodd" d="M157.043 257.875C156.223 258.69 156.222 260.018 157.036 260.836C157.851 261.654 159.178 261.656 159.998 260.842C160.819 260.029 160.823 258.704 160.008 257.886C159.194 257.068 157.863 257.061 157.043 257.875ZM157.833 258.668C158.216 258.288 158.836 258.293 159.215 258.673C159.595 259.053 159.594 259.674 159.212 260.054C158.83 260.431 158.209 260.429 157.83 260.049C157.45 259.666 157.451 259.048 157.833 258.668Z" fill="#03312E"/>
<path d="M160.454 269.683C161.055 269.087 161.058 268.116 160.46 267.514C159.862 266.914 158.889 266.911 158.287 267.509C157.686 268.106 157.683 269.077 158.281 269.677C158.88 270.277 159.852 270.282 160.454 269.683Z" fill="#03312E"/>
<path fill-rule="evenodd" clip-rule="evenodd" d="M157.857 267.277C157.037 268.092 157.036 269.42 157.851 270.238C158.665 271.056 159.993 271.058 160.813 270.246C161.633 269.431 161.637 268.106 160.823 267.288C160.008 266.47 158.678 266.463 157.857 267.277ZM158.647 268.072C159.03 267.692 159.65 267.695 160.03 268.075C160.409 268.457 160.408 269.076 160.026 269.456C159.644 269.835 159.024 269.831 158.644 269.451C158.265 269.069 158.265 268.45 158.647 268.072Z" fill="#03312E"/>
<path d="M161.394 278.842C161.995 278.246 161.998 277.275 161.4 276.672C160.802 276.072 159.829 276.07 159.227 276.668C158.626 277.264 158.623 278.235 159.221 278.835C159.819 279.438 160.792 279.44 161.394 278.842Z" fill="#03312E"/>
<path fill-rule="evenodd" clip-rule="evenodd" d="M158.829 276.439C158.009 277.254 158.008 278.582 158.822 279.4C159.637 280.218 160.964 280.22 161.784 279.408C162.605 278.593 162.609 277.268 161.794 276.45C160.98 275.632 159.649 275.625 158.829 276.439ZM159.619 277.232C160.002 276.852 160.622 276.857 161.001 277.237C161.381 277.619 161.38 278.238 160.998 278.618C160.616 278.995 159.995 278.993 159.616 278.613C159.237 278.231 159.237 277.612 159.619 277.232Z" fill="#03312E"/>
<path fill-rule="evenodd" clip-rule="evenodd" d="M137.327 22.2804C137.501 20.959 138.332 19.8673 139.49 19.1717C140.622 18.491 142.063 18.1868 143.569 18.3866C145.072 18.5862 146.376 19.2604 147.294 20.2076C148.231 21.175 148.767 22.4338 148.599 23.7529L148.418 25.1386L151.19 25.5006L151.371 24.115C151.664 21.9446 150.874 19.8322 149.333 18.2356C148.007 16.8599 146.114 15.8746 143.934 15.5942C141.755 15.314 139.681 15.7901 138.047 16.7775C136.15 17.923 134.839 19.7499 134.556 21.9183L134.375 23.304L137.146 23.666L137.327 22.2804Z" fill="#03312E"/>
<path fill-rule="evenodd" clip-rule="evenodd" d="M46.1207 55.5981C46.9072 54.5429 47.6727 53.4767 48.4448 52.4734C50.6435 49.6171 54.3149 47.6225 56.8143 44.988C58.0874 43.6447 61.1517 41.5235 61.1517 41.5235C62.3711 40.6901 64.0089 40.8341 65.0634 41.8681C66.1166 42.9007 66.2939 44.5349 65.4864 45.7706C65.4864 45.7706 64.9217 46.6349 64.638 47.0676C64.26 47.6454 63.675 48.3202 62.9732 49.0463C63.1965 49.5462 63.3905 50.3454 62.9694 51.4642C62.9164 51.6043 62.8568 51.7437 62.7886 51.8821C62.8362 52.3067 62.7902 52.7995 62.606 53.3689C62.4477 53.8583 62.0089 54.6811 61.2779 55.6089C61.3252 55.8564 61.3453 56.119 61.3339 56.399C61.3098 57.0294 60.7991 58.4712 59.4071 59.9172C58.5191 60.8397 57.2492 61.9512 55.9895 62.9725C55.7847 63.3315 55.635 63.6024 55.5776 63.7083C55.3225 65.1895 54.0184 66.3042 52.4701 66.2749C52.1415 66.2689 51.8247 66.211 51.5283 66.1106C50.7269 66.3958 50.1101 66.3059 49.7804 66.2366C48.521 65.9735 47.8046 65.2136 47.4575 64.169C47.4209 64.0592 47.3899 63.9275 47.3696 63.776C45.9546 65.2505 44.1802 66.9844 43.2273 68.7448C43.0749 69.0267 41.9007 70.7065 41.2065 71.5107C40.813 71.9672 40.451 72.2615 40.2542 72.3933C40.1888 72.4363 40.1252 72.4752 40.0617 72.5129C38.6409 74.6311 37.2531 76.78 36.0738 78.7206C34.7936 80.8271 33.7443 82.6423 33.2653 83.8346C34.4907 83.2284 35.7715 82.6907 36.588 82.0442C37.3162 81.4677 38.0613 80.6608 38.884 80.0334C39.8006 79.3366 40.7978 78.8181 41.8662 78.5946C42.5872 78.4436 43.2388 77.9691 43.9307 77.5234C45.1516 76.7382 46.4065 75.9258 47.752 75.4378C48.2776 75.2471 51.3899 74.3976 52.7746 74.4908C53.6385 74.549 54.3026 74.8161 54.8029 75.1837C58.1937 74.7083 61.9225 74.6899 64.18 75.5416C69.7932 77.6598 75.4605 79.9303 81.0307 82.0322C83.0335 82.7869 84.7548 84.1982 86.392 85.6896C87.4962 86.6958 88.5338 87.7672 89.7654 88.3423C90.2524 88.5704 90.8088 88.9389 91.3932 89.4064C91.6169 87.4811 91.9155 85.5533 92.1476 83.5558C93.0227 76.0241 97.2929 69.4695 99.3701 62.2701C99.86 60.5727 100.411 59.1258 101.019 57.5126C101.391 56.5273 101.983 55.3863 102.52 54.2572C102.858 53.5439 103.21 52.856 103.28 52.2549C103.241 52.5922 103.373 53.1352 103.373 53.1352C103.373 53.1352 103.496 49.6788 104.207 49.1143C105.547 48.0546 107.494 48.2807 108.553 49.6192C108.931 50.0965 109.146 50.6503 109.204 51.2129C109.344 51.7172 109.49 52.4207 109.426 52.969C109.197 54.9388 107.578 57.6556 106.809 59.6948C106.26 61.1517 105.757 62.4538 105.314 63.985C103.331 70.8602 99.1297 77.0771 98.294 84.27C97.7918 88.5924 96.8366 92.5387 97.4176 97.0081C97.5315 97.8796 97.671 99.6331 97.671 99.6331C97.7831 101.054 96.9087 102.368 95.5528 102.814C94.1984 103.259 92.7147 102.722 91.9606 101.512C91.9606 101.512 91.6178 100.95 91.4338 100.404C91.274 99.9254 91.2161 99.4432 91.2328 99.0328C91.1553 98.8536 90.7711 97.9691 90.414 97.424C89.4689 95.9791 88.1307 94.4084 87.1446 93.9477C85.6809 93.2629 84.3443 92.1861 83.0357 91.0029C81.7179 89.8114 80.4673 88.4325 78.8473 87.8207C73.2769 85.7204 67.6098 83.4482 61.9962 81.3316C59.352 80.3336 53.8182 81.2606 51.3982 82.33C51.1699 82.4541 50.6224 82.7463 50.4046 82.8167C49.7864 83.0149 49.2494 83.0005 48.848 82.9313C48.3931 82.8516 47.998 82.6932 47.6569 82.4679C47.3064 82.7001 46.9597 82.9342 46.6097 83.1495C45.4734 83.8475 44.3202 84.4028 43.1322 84.6502C42.7039 84.7398 42.3978 85.1348 42.0504 85.449C41.4908 85.9551 40.9543 86.4794 40.4291 86.8953C39.1089 87.9419 36.5669 88.7044 35.0222 89.9276C32.8655 91.6352 28.7813 95.329 28.7813 95.329C27.6873 96.3177 26.0476 96.3973 24.8625 95.5182C23.6788 94.6393 23.28 93.0468 23.9091 91.7131L24.1738 91.0447C24.3834 89.4104 24.9814 87.8591 25.6749 86.3221C26.183 85.1936 26.7535 84.074 27.07 82.8757C27.7324 80.3583 31.9501 73.5414 36.0822 67.4601C36.1646 67.308 36.2558 67.1526 36.3584 66.9957C36.5897 66.64 36.8895 66.2272 37.234 65.7806C40.0034 61.7779 42.5757 58.3332 43.8151 57.0141C44.6436 56.1312 45.484 55.7506 46.1207 55.5981ZM108.253 53.7879L108.2 53.838L108.225 53.817L108.253 53.7879ZM108.397 53.6457L108.339 53.7036L108.384 53.6596L108.419 53.6189L108.397 53.6457ZM108.561 53.4509L108.507 53.5192L108.53 53.4938L108.561 53.4509ZM108.666 53.3098L108.643 53.3422L108.661 53.3191L108.666 53.3098Z" fill="#FCE8D1"/>
<path fill-rule="evenodd" clip-rule="evenodd" d="M100.333 28.0232C100.288 27.6746 100.172 26.7341 100.172 26.5399C100.173 25.0221 101.049 24.308 101.353 24.0675C103.148 22.6456 106.009 21.9412 109.243 21.795C112.936 21.6289 117.178 22.1135 119.93 21.8873C121.707 21.742 129.308 20.6346 132.989 20.93C134.91 21.0829 136.203 21.7774 136.783 22.3851C137.713 23.3569 137.972 24.5026 137.456 25.8227C137.272 26.2951 136.826 27.01 135.961 27.6341C135.165 28.2099 133.023 29.296 132.727 29.4445C129.811 31.6998 125.595 33.1711 122.435 36.8964C119.507 40.3449 116.19 43.6833 113.489 47.3522C113.234 47.6967 112.566 48.7712 111.955 49.7666C111.919 49.924 111.867 50.0898 111.799 50.2634C111.703 50.5082 111.395 51.1013 110.674 52.0796C110.087 52.8767 109.448 53.2906 108.835 53.4712C108.337 54.0394 107.898 54.5849 107.715 54.9039C107.316 55.6005 107.138 56.4618 106.891 57.2589C106.603 58.1878 106.266 59.0659 105.814 59.8082C105.061 61.0472 103.574 61.5681 102.249 61.1539C99.8144 67.2763 95.9508 74.9925 95.1308 78.1032C94.3352 81.1256 93.8587 84.8629 93.501 87.905C93.4615 88.414 93.3583 89.1576 93.3327 89.281C92.8412 91.6943 90.5798 91.7608 90.4119 91.7667C89.7265 91.7924 89.0622 91.614 88.4434 91.1511C88.2984 91.0427 88.0749 90.8733 87.8558 90.6031C87.3866 90.8271 86.7924 90.9634 86.0318 90.875C85.3199 90.7923 84.5353 90.4846 83.8865 89.6874C83.6611 89.4123 83.3964 88.9778 83.2041 88.4055L83.0707 88.3912C82.3508 88.3034 81.5614 88.0021 80.9101 87.1414C80.2837 88.0408 79.6406 88.2248 79.0621 87.8511C77.9791 88.2371 77.0752 87.0673 76.8902 83.7087C75.612 83.618 74.4933 82.7367 74.1351 81.4613C74.1351 81.4613 74.0724 81.2374 73.9853 80.9094C73.867 80.9111 73.7466 80.9055 73.6273 80.8916C73.0325 81.5908 72.2912 81.8196 71.6916 81.895C71.0676 81.9744 70.3994 81.8898 69.7173 81.4884C69.4397 81.3238 68.8375 80.9724 68.4235 80.0184L68.2652 80.0619C67.524 80.2542 66.8239 80.1772 66.1645 79.8713C65.8747 79.7378 65.5636 79.5455 65.275 79.2573C64.8887 79.3616 64.5202 79.3722 64.2089 79.3514C63.5443 79.308 62.8591 79.0778 62.2404 78.4715C62.1091 78.3421 61.8707 78.1175 61.6641 77.7277C61.352 78.174 61.0822 78.5351 60.9423 78.6611C60.1296 79.3951 59.3354 79.4873 58.899 79.5013C57.8272 79.5371 56.9875 79.1231 56.3548 78.3221C55.9706 77.8385 55.6987 77.2471 55.5727 76.5769C55.1663 76.5381 54.7507 76.4224 54.329 76.2257C54.0436 76.0911 53.794 75.9383 53.579 75.767C53.1394 76.5122 52.4107 77.7219 51.932 78.4273C51.5451 78.9971 51.1889 79.375 51.0153 79.5249C49.5192 80.8143 48.1253 80.2796 47.4802 79.9345C47.3121 79.8447 47.1279 79.7331 46.9472 79.5941C46.3157 80.1734 45.7046 80.5653 45.2011 80.7472C44.6824 80.9361 44.2283 80.9944 43.8324 80.9751C43.6195 81.4274 43.3993 81.8815 43.1821 82.177C42.6875 82.8497 42.1135 83.25 41.62 83.4656C40.9885 83.7425 40.3533 83.8094 39.7239 83.7054C39.5666 83.6787 39.4061 83.643 39.2432 83.5917C38.4922 84.8861 37.7502 86.187 36.9965 87.4793C36.8801 87.6939 36.4851 88.4175 36.3445 88.5868C36.0405 88.9511 35.7261 89.1748 35.4759 89.3187C34.2701 90.01 33.1909 89.8299 32.2841 89.2673C31.8208 88.9813 31.0098 88.4172 30.8235 86.9816C30.6777 85.8632 31.2353 83.6673 32.547 81.1805C33.4799 79.4108 34.7438 77.3715 35.9786 75.4863C35.724 74.953 35.6183 74.3499 35.7141 73.6702C35.7791 73.2079 35.9845 72.5537 36.513 71.8921C36.8605 71.4556 37.6935 70.8122 38.0174 70.4097C39.5637 68.4947 39.6016 68.5439 41.1698 66.2714C41.3119 66.0655 41.467 65.8444 41.6335 65.6105C42.2317 64.2761 43.0387 63.0573 44.2997 62.0599C44.3865 61.9913 44.5042 61.9107 44.639 61.8278C45.8054 60.5313 47.1349 59.2594 48.5496 58.2827C51.1329 56.4994 53.9901 55.6764 56.8032 56.4562C57.0654 55.8817 57.264 55.5066 57.3882 55.296C57.4164 55.2473 57.4443 55.2013 57.472 55.1566L57.5551 54.9369C57.7299 54.4734 58.0808 53.7179 58.4202 53.3155C58.8088 52.8528 59.2559 52.5517 59.6852 52.368C59.8112 52.3137 59.939 52.2667 60.0674 52.2267C60.5664 50.6078 61.0741 49.1319 61.5506 48.035C62.035 46.9167 62.5476 46.0885 62.975 45.6064C63.5139 44.9993 64.086 44.665 64.5811 44.4848C65.9234 43.9977 67.0039 44.2892 67.9356 45.0362C68.288 45.3206 68.8509 46.2752 69.1559 46.8225C73.6494 49.5829 81.0724 51.6706 86.3863 48.9553C92.6648 45.7485 96.8702 41.845 99.432 35.0523C100.266 32.8379 100.092 30.4107 100.333 28.0232Z" fill="#FCE8D1"/>
<path fill-rule="evenodd" clip-rule="evenodd" d="M155.152 32.8174C153.871 32.5025 152.62 32.1124 151.448 31.564C150.664 31.1973 149.262 30.1622 149.262 30.1622C147.995 29.2004 147.665 27.433 148.498 26.0779C149.332 24.723 151.057 24.2201 152.487 24.9166L153.415 25.2889C154.586 25.4503 156.132 26.0842 157.673 27.0554C158.163 27.1588 158.655 27.2524 159.147 27.349C161.396 27.7904 163.633 28.2599 165.639 29.1978C167.574 30.102 169.344 31.3206 171.229 32.3021C171.796 32.0866 172.591 31.9975 173.633 32.3901C174.428 32.6893 174.97 33.1195 175.343 33.5638L176.543 34.2476C178.341 34.5873 183.803 36.6597 185.51 37.432L185.999 37.5212C186.932 37.6366 187.762 38.1706 188.254 38.972C188.747 39.772 188.848 40.753 188.53 41.6374C188.53 41.6374 187.95 43.2498 187.687 44.0647C186.464 47.8462 186.413 53.1217 186.605 57.1139C187.451 57.2093 188.234 57.6519 188.752 58.3593C188.752 58.3593 189.244 59.0424 189.511 59.7192C189.76 60.3446 189.84 60.9843 189.796 61.5066C189.816 61.5794 189.935 62.0082 190.044 62.2531C190.381 63.0111 190.88 63.7906 191.31 64.1558C192.505 65.1696 193.539 66.4672 194.617 67.6927C195.308 68.4791 195.997 69.2584 196.918 69.6889C197.473 69.9489 198.164 69.8956 198.81 69.9678C199.813 70.0802 200.774 70.2804 201.611 70.6717C202.395 71.0387 204.271 70.971 206.337 70.9169C209.959 70.8242 214.122 70.4005 215.341 69.9583C216.235 69.6345 216.895 69.2892 217.615 68.7355C217.878 68.4496 218.369 67.934 218.61 67.7833C219.193 67.415 219.784 67.2784 220.327 67.2725C221.211 67.2626 222.122 67.5332 222.893 68.5061C226.268 72.7684 228.986 78.9563 232.124 84.3347C234.116 87.7511 234.507 92.3967 236.064 95.8388C236.427 96.6433 237.128 97.5957 237.659 98.5506C238.249 99.6109 238.67 100.69 238.797 101.665C239.039 103.515 239.081 106.024 239.356 108.141C239.591 109.931 242.083 119.349 242.218 121.503C242.332 123.322 241.383 124.245 241.003 124.546C239.843 125.464 238.699 125.44 237.613 124.891C237.237 124.701 236.832 124.399 236.492 123.953C236.222 123.597 235.959 122.965 235.919 122.855C235.605 121.993 234.624 120.507 233.814 119.468C233.45 119.345 232.643 119.053 232.112 118.707C231.958 118.605 231.417 118.145 230.76 117.346C229.397 115.688 226.441 111.799 225.79 110.978C222.895 107.322 219.294 105.947 215.737 104.595C213.044 103.572 210.357 102.576 207.847 101.04C207.27 101.311 206.123 101.831 205.552 101.95C204.635 102.142 201.406 101.796 198.171 101.308C196.119 100.998 193.229 100.7 192.785 100.655C192.563 100.745 192.349 100.96 192.12 101.135C191.494 101.612 190.925 102.137 190.534 102.45C189.791 103.045 189.128 103.28 188.782 103.353C187.539 103.612 186.403 104.379 185.247 104.994C184.136 105.587 183.016 106.098 181.879 106.378L179.935 107.752C179.75 108.001 179.466 108.324 179.068 108.666C178.457 109.191 176.776 110.591 176.161 111.101C176.123 111.203 176.087 111.282 176.062 111.329C175.585 112.168 174.976 112.474 174.71 112.603C174.026 112.938 173.39 112.968 172.834 112.874C172.127 112.754 171.464 112.423 170.925 111.743C170.29 110.939 169.868 109.779 170.553 108.301C170.6 108.195 170.669 108.074 170.755 107.939C170.948 106.695 171.416 104.883 171.965 104.044C172.375 103.416 172.414 102.55 172.475 101.675C172.58 100.191 172.553 98.652 172.703 97.3638C173.26 92.5723 173.471 87.8123 173.741 83.0169C173.599 82.7893 173.471 82.5099 173.379 82.1702C173.362 82.1034 173.209 81.727 173.296 80.9704L173.33 80.6901C173.262 79.8465 173.048 79.1126 173.052 78.2268C173.063 75.952 172.885 73.7239 172.96 71.4297C172.971 71.0834 173.009 70.7558 173.041 70.5276C172.912 70.2113 172.809 69.8717 172.751 69.5145C171.975 68.9744 171.727 68.3011 171.632 68.0396C171.376 67.3361 171.27 66.4614 171.268 65.5313C171.267 64.9769 171.369 64.3783 171.252 63.9088C170.201 59.6648 168.161 55.5702 166.371 51.6132C165.427 49.5241 164.06 46.7978 163.751 44.4434C161.81 41.7323 159.728 38.4107 158.192 35.7773C157.664 34.8706 156.434 33.74 155.152 32.8174Z" fill="#FCE8D1"/>
<path fill-rule="evenodd" clip-rule="evenodd" d="M239.861 124.655C241.111 109.543 235.07 87.1053 219.406 67.1642C218.931 66.5582 219.036 65.6792 219.642 65.2023C220.248 64.7254 221.127 64.8322 221.604 65.4384C238.135 86.482 244.19 110.253 242.554 125.873C242.389 127.455 241.607 128.042 240.952 128.2C240.387 128.334 239.504 128.169 238.521 127.303C236.511 125.533 232.786 120.134 227.387 114.784C222.2 109.641 215.416 104.52 207.034 103.026C188.472 99.7162 174.421 113.984 171.704 116.742C171.227 117.228 170.901 117.459 170.834 117.491C170.432 117.684 170.111 117.642 169.909 117.598C169.567 117.519 169.306 117.34 169.11 117.086C168.023 115.671 159.587 97.2486 133.806 93.4593C107.616 89.6128 96.655 107.583 96.655 107.583C96.3928 108.016 95.9158 108.274 95.4103 108.256C94.9047 108.241 94.447 107.949 94.2156 107.5C94.2156 107.5 83.6801 87.0279 60.6964 83.9083C52.3689 82.7801 44.8488 85.7591 38.8661 89.3399C32.6606 93.0527 28.0631 97.4291 25.8402 98.8977C25.0993 99.3872 24.4907 99.6038 24.0937 99.6347C23.5706 99.6752 23.1603 99.5146 22.8418 99.2534C22.4688 98.9467 22.0521 98.2961 22.2327 97.0986C25.1741 77.6217 38.2984 54.5706 61.0111 38.8815C61.6447 38.4424 62.5165 38.6027 62.9536 39.236C63.3924 39.8717 63.2326 40.7414 62.599 41.1805C41.2593 55.9206 28.6103 77.3391 25.2761 95.8278C25.6123 95.5836 25.9697 95.3159 26.3052 95.0455C32.3913 90.1643 45.4451 79.0205 61.0718 81.1406C81.0564 83.8521 92.1866 98.9088 95.5742 104.302C99.335 99.5303 111.373 87.3412 134.211 90.6955C157.804 94.1625 167.605 109.229 170.485 114.012C174.714 109.845 189.054 96.9816 207.526 100.275C223.088 103.05 233.581 117.417 238.689 123.406C239.069 123.852 239.496 124.293 239.861 124.655Z" fill="#03312E"/>
<path fill-rule="evenodd" clip-rule="evenodd" d="M100.135 25.357C102.5 24.8851 104.918 24.4865 107.389 24.1633C117.657 22.824 128.835 22.8098 140.903 24.4589C160.033 27.0734 176.013 32.8985 189.16 40.6377C189.826 41.0286 190.683 40.8077 191.075 40.1436C191.467 39.4792 191.245 38.6223 190.581 38.2296C177.15 30.3225 160.829 24.3623 141.285 21.6899C128.95 20.0041 117.525 20.0244 107.032 21.3948C104.498 21.7239 102.017 22.1345 99.5923 22.6168C98.8348 22.768 98.3431 23.5039 98.4915 24.2606C98.6421 25.0156 99.3773 25.5082 100.135 25.357Z" fill="#03312E"/>
<path fill-rule="evenodd" clip-rule="evenodd" d="M141.861 22.1239C117.501 31.2823 99.192 54.636 94.375 106.149C94.3036 106.917 94.8695 107.599 95.636 107.67C96.4043 107.742 97.0859 107.177 97.1571 106.409C101.828 56.4625 119.225 33.6193 142.843 24.7393C143.565 24.468 143.931 23.6617 143.66 22.94C143.389 22.2183 142.582 21.8524 141.861 22.1239Z" fill="#03312E"/>
<path fill-rule="evenodd" clip-rule="evenodd" d="M142.338 24.601C165.754 40.5051 177.213 66.0103 168.897 115.474C168.769 116.234 169.282 116.955 170.043 117.083C170.802 117.211 171.524 116.697 171.653 115.937C180.232 64.9081 168.067 38.6971 143.907 22.2894C143.269 21.8561 142.4 22.0223 141.965 22.6601C141.533 23.2981 141.699 24.1677 142.338 24.601Z" fill="#03312E"/>
<path fill-rule="evenodd" clip-rule="evenodd" d="M134.203 92.2441L128.154 139.296C128.054 140.061 128.597 140.76 129.362 140.858C130.125 140.955 130.826 140.414 130.925 139.649L136.975 92.5992C137.074 91.8342 136.533 91.1332 135.768 91.0356C135.003 90.9379 134.301 91.4791 134.203 92.2441Z" fill="#03312E"/>
<path fill-rule="evenodd" clip-rule="evenodd" d="M124.661 155.12C123.832 162.746 121.97 167.35 119.723 169.976C117.741 172.294 115.496 172.927 113.64 172.748C110.998 172.494 109.095 171.847 107.85 170.546C105.897 168.504 105.608 165.055 106.151 159.817C106.231 159.05 105.672 158.363 104.905 158.284C104.139 158.203 103.452 158.762 103.372 159.529C102.713 165.884 103.462 170 105.831 172.477C107.466 174.187 109.903 175.195 113.371 175.53C118.167 175.993 125.553 172.808 127.438 155.421C127.521 154.654 126.966 153.964 126.199 153.881C125.432 153.799 124.744 154.354 124.661 155.12Z" fill="#03312E"/>
<path fill-rule="evenodd" clip-rule="evenodd" d="M128.352 154.411C128.224 154.219 128.078 154.023 127.919 153.822C126.736 152.342 124.779 150.724 122.622 149.453C120.852 148.412 118.945 147.603 117.208 147.339C115.801 147.127 114.515 147.254 113.648 148.142C111.131 150.72 111.37 154.147 112.1 158.23C112.933 162.882 114.5 168.316 114.611 174.377C114.625 175.149 114.01 175.786 113.238 175.8C112.467 175.814 111.83 175.198 111.816 174.427C111.687 167.299 109.474 161.056 108.949 155.958C108.55 152.086 109.084 148.815 111.65 146.19C112.85 144.959 114.478 144.422 116.337 144.463C118.707 144.515 121.501 145.553 124.039 147.045C126.952 148.759 129.517 151.059 130.748 152.971C131.442 154.049 131.732 155.062 131.666 155.865C131.627 156.344 131.408 156.757 130.944 157.055C130.746 157.182 130.456 157.303 130.062 157.348C129.691 157.389 129.121 157.361 128.408 157.253C126.248 156.931 122.439 155.895 119.607 155.215C119.608 155.39 119.622 155.592 119.668 155.765C119.844 156.421 120.262 157.172 120.994 157.949C121.524 158.51 121.499 159.393 120.938 159.922C120.377 160.451 119.492 160.427 118.963 159.866C116.52 157.278 116.555 154.697 117.127 153.547C117.654 152.487 118.58 152.107 119.505 152.32C122.044 152.906 125.726 153.921 128.119 154.37C128.196 154.384 128.273 154.399 128.352 154.411Z" fill="#03312E"/>
<path fill-rule="evenodd" clip-rule="evenodd" d="M129.752 149.36C129.006 148.023 127.509 146.342 125.071 144.949C123.99 144.331 121.986 143.627 120.229 143.624C119.444 143.623 118.699 143.727 118.235 144.224C117.956 144.524 117.82 144.962 117.796 145.547C117.766 146.317 117.115 146.917 116.344 146.887C115.573 146.854 114.974 146.204 115.004 145.433C115.061 144.037 115.524 143.036 116.192 142.318C116.863 141.598 117.768 141.153 118.81 140.954C121.331 140.475 124.766 141.556 126.459 142.523C130.047 144.575 131.932 147.189 132.646 148.932C133.088 150.012 133.095 150.887 132.951 151.367C132.756 152.007 132.201 152.598 131.071 152.569C129.92 152.541 127.152 151.417 125.144 151.062C124.385 150.929 123.878 150.203 124.012 149.444C124.146 148.684 124.872 148.177 125.631 148.312C126.757 148.511 128.525 149.001 129.752 149.36Z" fill="#03312E"/>
<path fill-rule="evenodd" clip-rule="evenodd" d="M132.898 145.415C132.01 143.708 129.232 141.324 127.657 140.361C126.973 139.943 125.657 139.372 124.352 139.167C123.5 139.033 122.622 138.962 122.12 139.537C121.776 139.932 121.684 140.571 121.759 141.502C121.822 142.271 121.249 142.945 120.481 143.008C119.712 143.072 119.037 142.498 118.974 141.73C118.845 140.153 119.142 139.022 119.631 138.221C120.493 136.815 122.005 136.253 123.713 136.304C125.737 136.363 128.03 137.312 129.116 137.977C131.12 139.205 134.634 142.403 135.556 144.499C135.887 145.252 135.88 145.888 135.716 146.404C135.532 146.982 135.137 147.46 134.54 147.79C133.867 148.162 132.842 148.339 131.727 148.247C130.231 148.123 128.584 147.532 127.591 146.657C127.013 146.146 126.958 145.263 127.467 144.685C127.979 144.106 128.862 144.051 129.44 144.561C130.155 145.192 131.455 145.508 132.465 145.477C132.595 145.473 132.758 145.444 132.898 145.415Z" fill="#03312E"/>
<path fill-rule="evenodd" clip-rule="evenodd" d="M224.322 43.3124L220.971 44.6484C220.54 44.8201 220.332 45.3159 220.506 45.7516C220.68 46.1872 221.164 46.3846 221.594 46.2129L224.946 44.8769C225.374 44.7062 225.59 44.23 225.416 43.7942C225.242 43.3587 224.751 43.1416 224.322 43.3124Z" fill="#03312E"/>
<path fill-rule="evenodd" clip-rule="evenodd" d="M191.473 56.3206L187.665 57.8154C187.234 57.9871 187.027 58.4831 187.198 58.9195C187.364 59.3352 187.854 59.5532 188.284 59.3815L192.092 57.8864C192.523 57.7147 192.731 57.219 192.557 56.7832C192.393 56.3666 191.901 56.1497 191.473 56.3206Z" fill="#03312E"/>
<path fill-rule="evenodd" clip-rule="evenodd" d="M214.53 68.4239L213.359 65.6642C213.187 65.2346 212.686 65.0369 212.265 65.214C211.844 65.391 211.642 65.8842 211.814 66.3138L212.985 69.0736C213.157 69.5031 213.657 69.7008 214.079 69.5238C214.5 69.3467 214.702 68.8535 214.53 68.4239Z" fill="#03312E"/>
<path fill-rule="evenodd" clip-rule="evenodd" d="M201.511 35.8999L200.201 32.6171C200.03 32.1874 199.526 31.9818 199.102 32.1509C198.677 32.32 198.473 32.8074 198.644 33.2371L199.954 36.5199C200.126 36.9496 200.609 37.1611 201.033 36.992C201.458 36.8229 201.682 36.3295 201.511 35.8999Z" fill="#03312E"/>
<path fill-rule="evenodd" clip-rule="evenodd" d="M225.079 57.7579L221.784 56.3813C221.357 56.2028 220.869 56.3957 220.685 56.8325C220.512 57.2506 220.709 57.7529 221.136 57.9315L224.431 59.3082C224.859 59.4867 225.354 59.2731 225.529 58.856C225.712 58.4191 225.507 57.9364 225.079 57.7579Z" fill="#03312E"/>
<path fill-rule="evenodd" clip-rule="evenodd" d="M192.307 44.1253L189.012 42.7485C188.585 42.57 188.097 42.7629 187.913 43.1995C187.74 43.6173 187.937 44.1199 188.364 44.2985L191.66 45.675C192.087 45.8536 192.582 45.6401 192.757 45.2232C192.94 44.7863 192.735 44.3038 192.307 44.1253Z" fill="#03312E"/>
<path fill-rule="evenodd" clip-rule="evenodd" d="M213.605 32.9392L212.16 36.2057C211.973 36.6293 212.176 37.1294 212.588 37.3136C213.022 37.504 213.509 37.3082 213.696 36.8846L215.141 33.6181C215.328 33.1945 215.146 32.7028 214.712 32.5123C214.298 32.3301 213.792 32.5156 213.605 32.9392Z" fill="#03312E"/>
<path fill-rule="evenodd" clip-rule="evenodd" d="M199.232 65.3985L197.788 68.6648C197.601 69.0883 197.803 69.5885 198.217 69.7728C198.65 69.9634 199.137 69.7677 199.324 69.3441L200.769 66.0777C200.956 65.6541 200.773 65.1624 200.34 64.9718C199.926 64.7895 199.42 64.9748 199.232 65.3985Z" fill="#03312E"/>
<path fill-rule="evenodd" clip-rule="evenodd" d="M206.17 52.0621L195.098 50.9908C194.557 50.9312 194.168 50.4669 194.215 49.9203C194.271 49.3929 194.748 48.9962 195.282 49.0359L206.654 50.1252C206.845 50.1407 207.026 50.2063 207.178 50.3293L216.335 57.8094C216.761 58.1673 216.825 58.7847 216.481 59.1972C216.137 59.6097 215.52 59.6721 215.102 59.3339L206.17 52.0621Z" fill="#03312E"/>
<path fill-rule="evenodd" clip-rule="evenodd" d="M226.273 43.5326C230.601 54.3885 225.246 66.7292 214.326 71.0825C203.405 75.4356 191.029 70.1635 186.701 59.3077C182.379 48.4657 187.729 36.1111 198.649 31.7579C209.569 27.4046 221.951 32.6907 226.273 43.5326ZM223.937 44.4637C225.848 49.2556 225.616 54.3773 223.7 58.7778C221.787 63.1605 218.203 66.8337 213.396 68.7501C208.59 70.6659 203.463 70.4652 199.057 68.585C194.645 66.7071 190.963 63.1621 189.056 58.3691C187.153 53.5907 187.391 48.4827 189.304 44.0833C191.213 39.7021 194.797 36.0455 199.596 34.1326C204.394 32.2197 209.511 32.4078 213.912 34.2739C218.326 36.1348 222.026 39.6888 223.937 44.4637Z" fill="#03312E"/>
<path fill-rule="evenodd" clip-rule="evenodd" d="M99.5132 28.5496L95.9097 28.7273C95.4466 28.7499 95.0894 29.1519 95.1127 29.6201C95.1357 30.0886 95.5296 30.4321 95.9925 30.4093L99.5962 30.2318C100.057 30.2089 100.415 29.8284 100.392 29.3599C100.369 28.8917 99.974 28.5269 99.5132 28.5496Z" fill="#03312E"/>
<path fill-rule="evenodd" clip-rule="evenodd" d="M64.1393 30.4072L60.0521 30.5872C59.5892 30.6101 59.232 31.0118 59.253 31.4805C59.275 31.9275 59.6677 32.2924 60.1306 32.2695L64.2178 32.0895C64.6809 32.0666 65.038 31.6649 65.0148 31.1964C64.995 30.7492 64.6001 30.3845 64.1393 30.4072Z" fill="#03312E"/>
<path fill-rule="evenodd" clip-rule="evenodd" d="M82.1124 49.0688L81.8998 46.0783C81.8771 45.6162 81.4676 45.2672 81.0116 45.2982C80.5555 45.3293 80.2049 45.7308 80.2277 46.1928L80.4405 49.1832C80.4633 49.6453 80.8727 49.9943 81.3288 49.9635C81.7846 49.9324 82.1352 49.5309 82.1124 49.0688Z" fill="#03312E"/>
<path fill-rule="evenodd" clip-rule="evenodd" d="M80.3747 13.979L80.2008 10.4487C80.178 9.98669 79.7683 9.62909 79.3118 9.65156C78.8555 9.67408 78.5043 10.0692 78.527 10.5312L78.7011 14.0615C78.7239 14.5235 79.1119 14.88 79.5685 14.8576C80.0248 14.835 80.3974 14.441 80.3747 13.979Z" fill="#03312E"/>
<path fill-rule="evenodd" clip-rule="evenodd" d="M95.474 42.703L92.8028 40.3322C92.4566 40.0249 91.9324 40.0491 91.6172 40.4026C91.3179 40.7418 91.3413 41.281 91.6878 41.5885L94.3589 43.9591C94.7054 44.2666 95.2426 44.2249 95.5434 43.8871C95.8586 43.5336 95.8204 43.0103 95.474 42.703Z" fill="#03312E"/>
<path fill-rule="evenodd" clip-rule="evenodd" d="M68.8923 19.189L66.221 16.8183C65.8747 16.5109 65.3506 16.5352 65.0353 16.8888C64.7361 17.228 64.7595 17.7672 65.1059 18.0746L67.7771 20.4453C68.1235 20.7527 68.6608 20.7111 68.9615 20.3733C69.2768 20.0197 69.2386 19.4964 68.8923 19.189Z" fill="#03312E"/>
<path fill-rule="evenodd" clip-rule="evenodd" d="M92.6924 15.423L90.2673 18.0449C89.953 18.3849 89.9826 18.9238 90.3136 19.232C90.6622 19.5529 91.1861 19.5255 91.5006 19.1855L93.9255 16.5636C94.24 16.2236 94.2266 15.6991 93.878 15.3782C93.5456 15.0716 93.0069 15.0831 92.6924 15.423Z" fill="#03312E"/>
<path fill-rule="evenodd" clip-rule="evenodd" d="M68.581 41.5802L66.1559 44.2022C65.8414 44.5421 65.8712 45.081 66.2022 45.3892C66.5507 45.7102 67.0746 45.6828 67.3891 45.3429L69.8141 42.7208C70.1286 42.3807 70.1151 41.8564 69.7666 41.5354C69.4341 41.2289 68.8953 41.2403 68.581 41.5802Z" fill="#03312E"/>
<path fill-rule="evenodd" clip-rule="evenodd" d="M79.2013 31.2194L69.1154 26.6579C68.6246 26.4259 68.404 25.8392 68.6287 25.3585C68.8501 24.8567 69.4297 24.636 69.9226 24.8678L80.8413 29.7937C81.3093 30.0054 81.5365 30.5493 81.364 31.0274L77.281 42.4342C77.0988 42.9339 76.5386 43.1963 76.0315 43.0294C75.521 42.841 75.2559 42.2778 75.4382 41.7779L79.2013 31.2194Z" fill="#03312E"/>
<path fill-rule="evenodd" clip-rule="evenodd" d="M101.28 29.4691C101.856 41.1417 92.7895 51.0803 81.0478 51.659C69.3062 52.2377 59.3066 43.2386 58.7314 31.566C58.1569 19.9086 67.2223 9.95488 78.964 9.37619C90.7057 8.79753 100.706 17.8116 101.28 29.4691ZM98.7687 29.5928C99.0225 34.7452 97.1431 39.515 93.9045 43.0571C90.674 46.5832 86.0929 48.8963 80.9242 49.1512C75.7571 49.4057 70.9721 47.5543 67.413 44.3475C63.8478 41.1408 61.5139 36.5937 61.263 31.4413C61.0113 26.304 62.893 21.5492 66.1288 18.0075C69.3545 14.4814 73.9303 12.1838 79.0897 11.9295C84.2493 11.6753 89.0288 13.5118 92.5872 16.7035C96.1593 19.8945 98.5079 24.456 98.7687 29.5928Z" fill="#03312E"/>
</svg>