<svg xmlns="http://www.w3.org/2000/svg" width="123" height="230" viewBox="0 0 123 230" fill="none">
<path fill-rule="evenodd" clip-rule="evenodd" d="M71.3991 64.5679C71.3578 64.0819 71.3167 63.6034 71.3013 63.1404C71.2922 62.867 71.1989 62.3262 71.1989 62.3262C71.0554 61.4052 71.5403 60.4986 72.3943 60.1135C73.2482 59.7283 74.2481 59.9591 74.8498 60.6763C74.8498 60.6763 75.0596 60.9456 75.2566 61.203C75.8038 61.4146 79.4556 62.8272 80.339 62.9462C80.6669 62.9892 82.1068 62.8486 82.4199 62.8168C82.8625 62.5308 83.3098 62.0022 83.4196 61.9043C84.7728 60.6662 86.1282 61.7679 86.2705 61.8952C86.3354 61.9596 87.2947 62.851 86.7398 64.3001C86.4158 65.1375 84.6656 69.1748 84.0318 70.8941L83.9704 71.3145C83.9297 71.601 83.889 71.8886 83.8482 72.1751L83.7028 73.0905C83.5391 74.9751 83.1472 77.5457 82.787 78.8024C82.5387 79.6509 82.1419 80.1867 81.8619 80.4548C81.8905 80.5593 81.9072 80.683 81.9245 80.8281C81.9412 80.9521 81.9583 81.0883 81.9633 81.2402C82.0511 83.8865 81.4696 85.2899 80.8929 88.3539C80.8294 88.7089 80.495 91.1205 80.012 92.0885C79.9762 92.1438 79.9528 92.1972 79.9168 92.2475C79.9311 92.301 79.933 92.3563 79.9349 92.4139C79.9513 92.907 79.6689 95.3746 78.9528 98.3979C78.9211 98.958 78.8664 99.5853 78.7336 100.125C78.5688 100.834 78.2621 101.432 77.8991 101.851C77.8719 102.168 77.8573 102.485 77.8176 102.802C77.7913 103.146 77.6151 103.889 77.4633 104.242C77.405 104.377 77.3463 104.496 77.2743 104.6C77.1195 105.612 76.9271 106.626 76.657 107.576C76.5094 108.427 76.311 109.26 76.1093 109.992C76.0424 110.248 75.9069 110.711 75.7818 111.103C75.7802 111.436 75.7642 111.709 75.7419 111.793C75.4731 112.783 74.7796 113.077 74.507 113.187C74.1597 113.322 73.8227 113.39 73.4698 113.352L73.3943 113.348L73.2935 113.339C72.9803 113.36 72.7146 113.3 72.4989 113.239C72.372 113.2 72.2194 113.144 72.0659 113.065L71.8149 113.07C71.7663 113.119 71.7175 113.161 71.6808 113.19C71.3504 113.453 70.9906 113.59 70.6531 113.644C70.0535 113.74 69.422 113.635 68.8258 113.077C68.2423 112.53 68.0597 112.325 68.0071 112.253C67.3994 111.354 67.5659 110.695 67.8856 110.112C68.1189 106.539 68.4838 103.149 69.0365 99.7482C68.7972 98.2111 69.1757 96.3734 69.5918 94.9038C69.6477 94.6947 69.7358 94.3224 69.839 94.0265C69.8114 93.9518 69.7836 93.8711 69.7682 93.7863C69.6809 93.4261 69.6447 91.9503 69.8022 90.6399C69.7494 90.5637 69.709 90.4809 69.6683 90.3906C69.2873 89.5101 69.1726 88.3244 69.2944 87.0744C69.4236 85.6695 69.8384 84.1635 70.0827 83.1995C70.2282 82.6645 70.3487 81.7537 70.6101 81.3003C70.6694 81.1929 70.7414 81.0924 70.8136 80.9984C70.7729 80.1493 70.7831 79.3226 70.7636 79.1121C70.5509 76.4877 70.643 73.5855 70.9586 70.98C71.0389 70.3717 71.2075 69.7759 71.3889 69.1819C71.4684 68.9294 71.5606 68.6788 71.6275 68.4254C71.4384 68.0297 71.2288 67.0117 71.2117 66.1167C71.1908 65.4867 71.2849 64.9185 71.3991 64.5679ZM74.9363 112.502L74.9118 112.519L74.8752 112.551L75.036 112.477L74.9363 112.502ZM68.1383 109.779C68.308 109.589 68.5272 109.382 68.5272 109.382C68.5272 109.382 68.2946 109.563 68.1383 109.779Z" fill="#FCE8D1"/>
<path fill-rule="evenodd" clip-rule="evenodd" d="M57.4637 75.0291C57.6011 74.8561 57.9426 74.4353 58.0553 74.3463C58.2669 74.1771 58.4722 74.0761 58.6433 74.0113C59.4475 73.7134 60.1104 73.8999 60.6467 74.3129C60.9482 74.5441 61.435 74.9777 61.4665 75.9275C61.5688 79.009 60.631 82.4731 60.4932 85.6268C60.4502 86.603 60.4326 87.5794 60.3833 88.5547C60.3887 90.1195 60.3855 91.6886 60.3455 93.2486C60.317 94.3928 60.3207 95.7177 60.2795 96.2969C60.2589 96.5841 60.2114 96.8154 60.1607 96.9905C60.1626 97.2379 60.1681 97.4826 60.1762 97.7261C60.2021 98.5077 60.1636 99.4285 60.1176 100.01C60.1612 100.151 60.1966 100.307 60.2198 100.475C60.2897 100.996 60.2203 102.005 60.2526 102.489L60.2691 102.756C60.5392 103.897 60.4783 105.312 60.4625 106.426L60.4753 106.74C60.4808 106.906 60.4733 107.059 60.4529 107.202C60.45 107.452 60.4419 107.7 60.4274 107.867C60.4197 107.944 60.4109 108.017 60.3993 108.085C60.3855 108.686 60.3575 109.286 60.3311 109.885C60.2976 110.657 60.4982 111.176 60.6185 111.547C60.7569 111.971 60.8391 112.328 60.8602 112.625C60.9308 113.656 60.6567 114.479 59.4463 115.135C58.8959 115.433 57.6278 115.755 56.5146 115.743C55.0407 115.727 53.9102 115.013 53.4928 114.244C53.0982 113.516 53.1357 113.057 52.8285 111.752C51.2515 105.032 50.2439 98.2466 49.1467 91.3392C48.9326 89.9947 48.2528 88.0175 47.9594 86.1795C47.8342 85.3999 47.7826 84.6391 47.8181 83.9295C47.6674 83.8165 47.5324 83.6828 47.4082 83.535C47.1755 83.2575 46.9783 82.8858 46.8738 82.4259C46.8209 82.1928 46.7775 81.6768 46.7642 81.5038C46.6528 81.2124 46.4025 80.6315 46.2761 80.1558C46.1154 79.5557 46.1175 79.0118 46.1949 78.655C46.2209 78.5335 46.2548 78.4194 46.2952 78.3126L46.2606 78.1754C46.1955 78.1048 46.1494 78.041 46.1289 77.9901C45.8778 77.3918 45.7142 76.5857 46.5598 75.6823C47.085 75.121 47.6379 75.0121 48.0734 75.004C48.5456 74.9959 48.9995 75.1302 49.4148 75.4568C49.5285 75.5474 49.6451 75.6577 49.7553 75.7947C49.8426 75.8533 49.9212 75.9124 49.9835 75.9718C50.2362 76.2072 50.991 76.8855 51.1983 77.0708C51.3406 77.0849 51.4959 77.0685 51.648 77.0722C52.0351 77.0833 52.418 77.112 52.7671 77.187C53.0859 77.2557 53.4917 77.0688 53.9287 76.9125C55.0954 76.4944 56.3075 75.806 56.9999 75.4314C57.1294 75.3604 57.3496 75.1472 57.4637 75.0291Z" fill="#FCE8D1"/>
<path fill-rule="evenodd" clip-rule="evenodd" d="M24.0648 81.7036C25.7951 81.3837 26.0163 80.7069 27.0304 79.6232C27.5776 79.0384 28.1767 78.9281 28.6916 78.9601C29.1799 78.9903 29.726 79.1681 30.1842 79.7245C30.3229 79.892 30.5648 80.257 30.6751 80.8174C30.7373 81.1381 30.7868 81.8399 30.8078 82.167C31.0472 83.1351 31.3893 84.0946 31.6029 85.0787C32.1622 87.6652 32.4015 91.3579 33.3814 93.825C33.7173 94.0687 33.9838 94.4141 34.1273 94.8365C34.1273 94.8365 34.1443 94.8937 34.1713 94.9883L34.1726 94.9883L34.1868 95.043C34.2153 95.1451 34.2498 95.2771 34.2835 95.4191C34.3338 95.6108 34.3913 95.825 34.4338 95.9719L34.534 96.3027C34.8191 96.9451 35.0807 97.6009 35.3025 98.3083C35.4332 98.7235 35.5613 99.1389 35.6806 99.5569C35.7731 99.8842 36.0617 100.628 36.1019 100.894C36.1485 101.202 36.1265 101.45 36.0959 101.624C36.077 101.734 36.0527 101.837 36.0245 101.935C36.8972 105.066 38.7662 108.585 39.5101 111.473C39.8333 112.73 39.2296 113.421 38.6733 113.81C38.3026 114.071 37.6743 114.364 36.7801 114.105C36.4903 114.269 36.1377 114.391 35.7146 114.436C34.7319 114.54 32.644 113.957 31.3709 113.299C30.4571 112.825 29.9016 112.214 29.7194 111.871C28.5769 109.725 28.1047 107.84 27.9268 106.112C26.5322 104.434 25.3207 102.714 24.6408 101.223C23.8929 99.5838 23.4234 97.7001 22.433 96.1665C21.6385 94.9369 21.2281 93.6554 20.539 92.3833C19.7362 90.9025 18.5322 89.8987 17.8927 88.3045C17.6518 87.7071 16.6897 85.895 16.3137 85.4277C16.0097 85.0496 15.7651 84.3757 15.7547 83.9489C15.7446 83.4945 15.87 83.1085 16.0568 82.7959C16.2984 82.391 16.652 82.0701 17.1622 81.8875C17.4601 81.7796 17.8852 81.6825 18.4693 81.8353C18.9508 81.96 19.3497 82.2469 19.6209 82.6211C19.9215 82.4804 20.3396 82.3624 20.8086 82.4522C21.197 82.2711 21.9207 81.9355 22.113 81.8638C22.4568 81.737 22.8415 81.6714 23.2471 81.6679C23.4893 81.665 23.9565 81.6959 24.0648 81.7036ZM17.779 85.9041L17.7828 85.904L17.7728 85.903L17.779 85.9041ZM17.6946 85.8957L17.7123 85.8975L17.6517 85.8895L17.6946 85.8957ZM17.6076 85.8834L17.6228 85.8855L17.5418 85.8705L17.6076 85.8834ZM17.5229 85.8674L17.4229 85.843C17.4571 85.8531 17.49 85.8609 17.5229 85.8674Z" fill="#FCE8D1"/>
<path fill-rule="evenodd" clip-rule="evenodd" d="M54.0675 53.1458C55.0221 60.261 55.7955 67.4436 56.4244 74.577C56.4914 75.3371 57.1628 75.899 57.9221 75.8319C58.6813 75.7648 59.2428 75.0942 59.1757 74.335C58.5431 67.1592 57.7651 59.9353 56.8046 52.7783C56.7037 52.0234 56.0079 51.4921 55.2519 51.5938C54.4967 51.6949 53.9656 52.3907 54.0675 53.1458Z" fill="#03312E"/>
<path fill-rule="evenodd" clip-rule="evenodd" d="M87.875 109.446C93.2348 93.283 99.3145 76.4365 105.983 61.5551C106.298 60.8598 105.984 60.0423 105.284 59.7298C104.594 59.4188 103.771 59.7298 103.465 60.4258C96.7537 75.3874 90.6475 92.3265 85.2529 108.576C85.0171 109.301 85.4139 110.083 86.1362 110.324C86.8585 110.563 87.639 110.17 87.875 109.446Z" fill="#03312E"/>
<path fill-rule="evenodd" clip-rule="evenodd" d="M71.2554 57.9556C69.6232 59.496 66.8068 61.3592 63.0723 60.7841C57.3738 59.9076 54.1975 53.6196 54.1975 53.6196C53.8603 52.9362 54.1407 52.1077 54.8243 51.7697C55.5069 51.4324 56.3362 51.7127 56.6734 52.3961C56.6734 52.3961 59.0648 57.3727 63.4837 58.0533C67.9174 58.7358 70.5287 54.6205 70.5287 54.6205C70.8212 54.1547 71.3756 53.9141 71.9172 54.0051C72.4584 54.0969 72.8949 54.5034 73.0334 55.0422C73.0334 55.0422 74.2484 60.1121 79.2367 60.9169C83.7562 61.6471 86.9995 57.488 86.9995 57.488C87.3071 57.0968 87.8053 56.9047 88.3012 56.9854C88.7973 57.0651 89.2084 57.4048 89.3786 57.8734C89.3786 57.8734 91.2407 63.1291 95.8498 63.938C97.2977 64.1928 98.7715 63.6277 100.044 62.9229C102.158 61.7472 103.718 60.0884 103.718 60.0884C104.244 59.5337 105.119 59.5065 105.667 60.0261C106.225 60.5482 106.255 61.4237 105.738 61.9801C105.738 61.9801 103.886 63.945 101.383 65.3365C99.5733 66.3427 97.4358 67.0206 95.3649 66.6574C91.3698 65.9554 88.9067 62.7559 87.6975 60.6693C85.9361 62.192 82.7109 64.2758 78.7882 63.6429C74.581 62.9631 72.3483 60.0577 71.2554 57.9556Z" fill="#03312E"/>
<path fill-rule="evenodd" clip-rule="evenodd" d="M70.1123 55.9707L66.0902 113.397C66.0369 114.157 66.6166 114.819 67.3729 114.871C68.1384 114.925 68.7915 114.35 68.8446 113.59L72.8758 56.1649C72.9289 55.4048 72.3496 54.7426 71.5932 54.6901C70.8276 54.6359 70.1656 55.2097 70.1123 55.9707Z" fill="#03312E"/>
<path fill-rule="evenodd" clip-rule="evenodd" d="M86.6448 58.5234L75.6663 111.199C75.5024 111.944 75.984 112.677 76.731 112.832C77.4782 112.988 78.2084 112.508 78.3631 111.762L89.3415 59.0857C89.5051 58.341 89.0238 57.6086 88.2766 57.4528C87.5295 57.2972 86.7994 57.7772 86.6448 58.5234Z" fill="#03312E"/>
<path fill-rule="evenodd" clip-rule="evenodd" d="M80.3233 61.2158C80.3233 61.2158 83.6541 33.7776 85.2169 20.9036C85.4746 18.854 85.969 14.802 87.6414 12.1317C88.5239 10.7163 89.7884 9.72766 91.6782 10.0713C94.3586 10.5587 95.1608 12.602 95.3178 14.7564C95.515 17.3915 94.8195 20.233 94.5601 21.6596C94.4238 22.4093 94.9182 23.1283 95.6716 23.2653C96.4128 23.4 97.1411 22.9035 97.2775 22.1538C97.563 20.5838 98.2982 17.4523 98.073 14.5505C97.82 11.1703 96.3718 8.11764 92.1724 7.35396C88.9855 6.77448 86.7968 8.28534 85.3049 10.6656C83.4029 13.6871 82.7642 18.2513 82.4826 20.5722C80.9201 33.445 77.5771 60.881 77.5771 60.881C77.4903 61.6385 78.0286 62.3272 78.79 62.4209C79.5391 62.5113 80.2243 61.9711 80.3233 61.2158Z" fill="#03312E"/>
<path fill-rule="evenodd" clip-rule="evenodd" d="M11.6267 79.7923C17.6739 90.7846 23.2794 102.171 28.4059 113.296C28.7188 113.989 29.5444 114.292 30.2318 113.974C30.9283 113.655 31.2256 112.835 30.9125 112.141C25.7624 100.957 20.1256 89.5118 14.0463 78.461C13.6794 77.7935 12.8388 77.5494 12.1705 77.9175C11.5029 78.2842 11.2589 79.125 11.6267 79.7923Z" fill="#03312E"/>
<path fill-rule="evenodd" clip-rule="evenodd" d="M63.2767 113.774C62.4591 96.9799 62.2572 85.0711 63.0867 69.0119C63.1299 68.2494 62.5413 67.6008 61.776 67.5621C61.0196 67.5216 60.365 68.1086 60.331 68.8682C59.4922 85.0287 59.6986 97.0096 60.5175 113.909C60.5593 114.669 61.2029 115.258 61.9723 115.219C62.7327 115.183 63.3188 114.536 63.2767 113.774Z" fill="#03312E"/>
<path fill-rule="evenodd" clip-rule="evenodd" d="M29.3798 78.0818C28.4141 80.1078 26.4609 82.8624 22.7707 83.675C17.1402 84.916 11.9074 80.1997 11.9074 80.1997C11.3461 79.684 11.3082 78.8103 11.8236 78.2482C12.3383 77.687 13.2129 77.649 13.7742 78.1644C13.7742 78.1644 17.8017 81.9414 22.168 80.98C26.5489 80.0149 27.4975 75.2346 27.4975 75.2346C27.6022 74.6943 28.0322 74.2698 28.57 74.1591C29.1079 74.0491 29.6619 74.2706 29.9855 74.7229C29.9855 74.7229 32.9497 79.0117 37.8919 77.9606C42.37 77.009 43.8923 71.9594 43.8923 71.9594C44.0377 71.4835 44.433 71.1243 44.9245 71.0204C45.416 70.9157 45.922 71.0837 46.2499 71.4594C46.2499 71.4594 49.8845 75.6878 54.4748 74.7772C55.9167 74.4919 57.0872 73.4327 58.0189 72.3159C59.566 70.4558 60.421 68.3459 60.421 68.3459C60.7115 67.6384 61.5176 67.2971 62.2166 67.5834C62.9251 67.8691 63.2691 68.6745 62.9878 69.3803C62.9878 69.3803 61.971 71.8813 60.1391 74.0831C58.8153 75.6748 57.067 77.0789 55.0046 77.4881C51.0257 78.2766 47.5732 76.1826 45.6921 74.6738C44.5996 76.7299 42.3447 79.8378 38.4583 80.6645C34.2895 81.55 31.1581 79.6474 29.3798 78.0818Z" fill="#03312E"/>
<path fill-rule="evenodd" clip-rule="evenodd" d="M27.575 76.65L39.3445 114.52C39.5696 115.248 40.3396 115.657 41.0726 115.429C41.7967 115.203 42.2068 114.428 41.9819 113.7L30.2122 75.8302C29.9781 75.1041 29.2081 74.6958 28.4751 74.9237C27.7511 75.1488 27.3409 75.9238 27.575 76.65Z" fill="#03312E"/>
<path fill-rule="evenodd" clip-rule="evenodd" d="M43.9454 72.9944L50.8949 114.279C51.0295 115.03 51.7426 115.537 52.4858 115.411C53.2384 115.285 53.7457 114.572 53.6203 113.82L46.6619 72.5373C46.5365 71.7856 45.8232 71.2783 45.0708 71.4048C44.3181 71.5312 43.811 72.2444 43.9454 72.9944Z" fill="#03312E"/>
<path fill-rule="evenodd" clip-rule="evenodd" d="M39.4669 78.2854C39.4669 78.2854 32.9266 51.4314 29.8639 38.831C29.3119 36.5593 28.142 32.1016 25.8985 29.3242C24.1373 27.1354 21.7863 25.8921 18.6897 26.8415C14.6088 28.0928 13.5289 31.2944 13.6744 34.681C13.7914 37.5891 14.8893 40.6127 15.357 42.1381C15.5804 42.8668 16.362 43.2745 17.0822 43.0536C17.8143 42.8291 18.221 42.0571 17.9976 41.3286C17.5725 39.9423 16.5484 37.202 16.4348 34.5619C16.3378 32.404 16.8948 30.2807 19.4994 29.482C21.3358 28.9189 22.7076 29.7523 23.7501 31.0544C25.7243 33.51 26.6908 37.4758 27.1875 39.481C30.2506 52.0826 36.7788 78.9403 36.7788 78.9403C36.9658 79.6787 37.7097 80.1347 38.4431 79.9571C39.1881 79.7747 39.642 79.0276 39.4669 78.2854Z" fill="#03312E"/>
<path fill-rule="evenodd" clip-rule="evenodd" d="M90.5843 99.7638C91.3405 100.086 91.9157 100.478 92.3245 100.912C92.7763 101.393 93.0083 101.911 93.0243 102.392C93.0601 103.472 92.174 104.429 90.7878 105.419C88.4501 107.089 84.6903 108.589 79.941 109.838C73.0266 111.657 64.0548 112.908 54.2306 113.234C44.4063 113.56 35.3715 112.906 28.3517 111.549C23.5301 110.618 19.6789 109.37 17.2359 107.859C15.7869 106.963 14.8394 106.067 14.8035 104.987C14.7765 104.171 15.4593 103.418 16.5227 102.574C17.7825 101.572 19.5901 100.58 21.8788 99.6006C22.5791 99.2998 22.9055 98.4878 22.6054 97.7869C22.3054 97.0868 21.4933 96.7612 20.7918 97.0611C17.6184 98.4202 15.2835 99.8393 13.8787 101.225C12.575 102.511 12.0021 103.833 12.0434 105.079C12.0933 106.583 12.9216 108.057 14.5737 109.365C16.4577 110.858 19.5081 112.199 23.4599 113.263C31.0562 115.307 42.0907 116.4 54.3222 115.995C66.5537 115.589 77.4927 113.767 84.9354 111.223C88.808 109.9 91.7629 108.36 93.5438 106.745C95.1056 105.33 95.8345 103.805 95.7846 102.3C95.7553 101.419 95.4551 100.458 94.7814 99.551C94.136 98.6825 93.1335 97.8481 91.6655 97.2227C90.9636 96.9245 90.1526 97.2513 89.8542 97.9528C89.5557 98.6536 89.8824 99.4655 90.5843 99.7638Z" fill="#03312E"/>
<path fill-rule="evenodd" clip-rule="evenodd" d="M12.0606 105.193C12.1035 106.601 16.914 134.905 22.5997 164.34C23.5505 169.258 24.5373 174.202 25.5472 179.051C30.0217 200.559 34.7353 220.234 37.8281 227.585C37.9418 227.865 38.2615 228.001 38.5415 227.886C38.8218 227.772 38.9569 227.451 38.842 227.173C36.5006 221.226 33.3389 207.295 30.0935 190.874C29.1108 185.901 28.138 180.697 27.144 175.423C26.5005 172.004 25.8485 168.555 25.2018 165.117C19.6071 135.4 14.6916 106.426 14.6446 105.008C14.6225 104.343 14.065 103.822 13.4 103.844C12.735 103.866 12.0365 104.39 12.0606 105.193Z" fill="#03312E"/>
<path fill-rule="evenodd" clip-rule="evenodd" d="M86.2193 226.057C88.7121 217.03 91.3257 190.667 93.2144 164.268C93.3619 162.2 93.5104 160.13 93.6392 158.068C95.1653 133.646 96.0587 110.522 95.7848 102.266C95.7566 101.418 95.0116 100.922 94.3466 100.944C93.6817 100.966 93.1599 101.524 93.1819 102.189C93.4408 109.992 92.6355 131.262 91.4463 154.21C91.0622 161.604 90.6739 169.171 90.2232 176.519C88.8841 198.322 87.1715 218.186 85.2372 225.798C85.1646 226.068 85.3269 226.347 85.5982 226.417C85.8682 226.49 86.1467 226.329 86.2193 226.057Z" fill="#03312E"/>
</svg>